<?xml version="1.0" encoding="UTF-8" standalone="no"?>
<svg
   viewBox="0 0 283.5 292.4"
   height="321"
   width="311"
   version="1.1"
   id="svg111"
   sodipodi:docname="orchid-extrude.svg"
   inkscape:version="1.3.2 (091e20ef0f, 2023-11-25)"
   xmlns:inkscape="http://www.inkscape.org/namespaces/inkscape"
   xmlns:sodipodi="http://sodipodi.sourceforge.net/DTD/sodipodi-0.dtd"
   xmlns:xlink="http://www.w3.org/1999/xlink"
   xmlns="http://www.w3.org/2000/svg"
   xmlns:svg="http://www.w3.org/2000/svg">
  <defs
     id="defs111" />
  <sodipodi:namedview
     id="namedview111"
     pagecolor="#ffffff"
     bordercolor="#000000"
     borderopacity="0.25"
     inkscape:showpageshadow="2"
     inkscape:pageopacity="0.0"
     inkscape:pagecheckerboard="0"
     inkscape:deskcolor="#d1d1d1"
     inkscape:zoom="1.8019107"
     inkscape:cx="151.22836"
     inkscape:cy="144.29128"
     inkscape:window-width="1916"
     inkscape:window-height="1011"
     inkscape:window-x="20"
     inkscape:window-y="20"
     inkscape:window-maximized="0"
     inkscape:current-layer="svg111" />
  <g
     transform="matrix(-1 0 0 1 283.5 -0)"
     id="g111"
     style="stroke-width:1.64083601;stroke-dasharray:none">
    <defs
       id="defs1">
      <style
         id="style1">      .cls-1 {        fill: none;        stroke: #231f20;        stroke-linecap: round;        stroke-miterlimit: 10;        stroke-width: 1.1px;      }      .cls-2 {        opacity: .4;      }      .cls-3 {        display: none;      }    </style>
    </defs>
    <!-- Generator: Adobe Illustrator 28.7.1, SVG Export Plug-In . SVG Version: 1.2.0 Build 142)  -->
    <g
       id="g110"
       style="stroke-width:1.64083601;stroke-dasharray:none">
      <g
         id="Layer_1"
         class="cls-3"
         style="stroke-width:1.64083601;stroke-dasharray:none">
        <image
           class="cls-2"
           width="3024"
           height="4033"
           transform="translate(-501.5 -946.6) scale(.6)"
           xlink:href="orchidee-1.png"
           id="image1"
           style="stroke-width:2.73472669;stroke-dasharray:none" />
      </g>
      <g
         id="Layer_2"
         style="stroke-width:1.64083601;stroke-dasharray:none">
        <path
           class="cls-1"
           d="M83.5,243.7c0-2,2-4.1,3.2-5.7,3.5-4.8,9.4-7.3,15.2-8.6,5.8-1.3,11.8-1.5,17.6-2.7,8.5-1.8,16.6-5.7,23.2-11.4-1.1,5-2.2,10.1-4.6,14.7-1.7,3.1-3.9,6-6.5,8.4-3.6,3.4-7.8,6-12.4,7.7-5.5,2.1-11.5,2.7-17.3,3.8-5.8,1.1-11.7,2.9-16.2,6.7"
           id="path1"
           style="stroke-width:1.64083601;stroke-dasharray:none" />
        <path
           class="cls-1"
           d="M89.2,247.7c2.5-4.2,6.5-7.6,11.1-9.3,4.1-1.5,8.6-1.7,13-2.3,4.9-.7,9.8-1.8,14.2-4.2s8.2-6,10.1-10.6"
           id="path2"
           style="stroke-width:1.64083601;stroke-dasharray:none" />
        <path
           class="cls-1"
           d="M113.9,248.3"
           id="path3"
           style="stroke-width:1.64083601;stroke-dasharray:none" />
        <path
           class="cls-1"
           d="M113.9,247.6c8.7-2.4,18-5.7,27-3.8,7.7,1.6,14.4,6.4,22.1,7.6.9.1,1.8.2,2.6.7s1.4,1.3,1.2,2.2c-.2,1-1.2,1.5-1.9,2.1-1.6,1.3-2.2,3.6-1.5,5.6-.6-.8-.7-1.9-1.1-2.8s-1.4-1.8-2.4-1.4"
           id="path4"
           style="stroke-width:1.64083601;stroke-dasharray:none" />
        <path
           class="cls-1"
           d="M162.5,257c-2.7-.4-5.4.4-7.8,1.5s-4.6,2.7-6.9,4.1c-4.5,2.8-9.4,5.1-14.4,6.9-4.8,1.8-9.8,3.2-14.9,3.6-10,.8-21.6-4.8-31.6-5.2"
           id="path5"
           style="stroke-width:1.64083601;stroke-dasharray:none" />
        <path
           class="cls-1"
           d="M78,265.1c4.8,2.6,13.9,4.3,19.1,2.7,5.2-1.5,10.1-4.1,15.2-5.9,3.1-1,6.8-1.6,9.3.5"
           id="path6"
           style="stroke-width:1.64083601;stroke-dasharray:none" />
        <path
           class="cls-1"
           d="M118.8,261.1c1.1,1.9.8,4.6-.7,6.2,3.1-1,5.1-4.7,4.1-7.9-.5-1.5-1.4-2.7-2.5-3.7-4.5-4.2-11.2-5.2-17.4-4.8-8.2.5-15.3,2.5-20.2,9.5,0,0-3.2,5.4-4.1,4.5"
           id="path7"
           style="stroke-width:1.64083601;stroke-dasharray:none" />
        <path
           class="cls-1"
           d="M85.1,264c4.2-3.6,9-6.7,14.4-8.2,5.4-1.5,11.3-1.4,16.3,1.2"
           id="path8"
           style="stroke-width:1.64083601;stroke-dasharray:none" />
        <path
           class="cls-1"
           d="M48.1,85.8c-.9-1.5-2-2.9-3.3-4.1-1.2-1.1-2.6-2.2-4.2-2.1-2.4.1-3.8,2.5-5.8,3.8-1.3.8-2.9,1.3-3.7,2.6-.8,1.4-.3,3.1.5,4.5s2.1,2.4,2.9,3.8c.6,1,1,2.1,2,2.7.5.3,1.1.4,1.7.5,2.3.2,4.6-.3,6.6-1.5,1.1-.7,2.1-1.6,3.4-2,1.5-.5,3.1-.1,4.7-.3,1.2-.2,2.4-.6,3.6-.5,2,.2,3.5,1.8,5.1,2.9,1,.7,2.1,1.1,3.3,1.4,1.2.3,2.4.3,3.4-.3,1.2-.7,1.6-2.2,1.7-3.6.2-2.7-.5-5.5-2.2-7.7s-4-3.8-6.7-4.4c-.9-.2-1.8-.3-2.6,0-1.4.4-2.5,1.5-3.4,2.8s-1.6,2.6-2.7,3.5c-.4.3-.9.6-1.4.6-.4,0-.7-.2-1-.4-.8-.6-1.5-1.4-2-2.2"
           id="path9"
           style="stroke-width:1.64083601;stroke-dasharray:none" />
        <path
           class="cls-1"
           d="M42.8,97.3l-1.3,1c-1.2.9-2.4,2-3,3.4-.6,1.5-.2,3.4.9,4.6s2.9,1.7,4.5,1.3c1.6-.4,2.8-1.7,3.8-3s1.9-2.7,3.1-3.8,3-1.8,4.6-1.3c1.4.5,2.3,1.7,3.3,2.8,1,1,2.1,2,3.4,2.5s2.8.6,4.2,0c1.4-.6,2.4-1.9,2.7-3.3s-.2-3.1-1.3-4.1"
           id="path10"
           style="stroke-width:1.64083601;stroke-dasharray:none" />
        <path
           class="cls-1"
           d="M50.2,101.9c0,.7.3,1.3.6,1.9.2.4.5.8.9,1.1.3.2.7.3,1.1.3,1.1.1,2.2-.2,3.1-.8.9-.7,1.6-1.7,2.2-2.7"
           id="path11"
           style="stroke-width:1.64083601;stroke-dasharray:none" />
        <path
           class="cls-1"
           d="M51.3,62.8c-.7-1.1-1.5-2.2-1.9-3.5-.5-1.6-.4-3.2-.8-4.8-.3-1.5-1-2.8-2-4-1.1-1.2-2.4-2.2-4-2.5-2.7-.6-5.6.7-7.2,2.9s-2.2,5.1-1.7,7.8c.3,1.6.9,3.2,1,4.9,0,.5,0,1,.1,1.5.4,1.4,1.9,2.3,3.3,2.4s2.9-.4,4.3-.7,3-.5,4.3.1"
           id="path12"
           style="stroke-width:1.64083601;stroke-dasharray:none" />
        <path
           class="cls-1"
           d="M51.1,62.6c.3.4.8.7,1.3.6s.9-.4,1.2-.8c.8-.9,1.2-2.1,1.6-3.2.6-1.7,1.3-3.3,2.1-4.8.6-1.1,1.2-2.1,2-3,.8-.8,1.8-1.5,2.9-1.5,1.1,0,2.1.9,3.1,1.3,1.8.8,4,.7,5.4,2,1,1,1.3,2.5,1.3,3.9,0,1.9-.5,3.8-1.6,5.4s-2.7,2.8-4.6,3c-.6,0-1.1,0-1.7,0-1.7-.5-2.5-2.7-4.1-3.3"
           id="path13"
           style="stroke-width:1.64083601;stroke-dasharray:none" />
        <path
           class="cls-1"
           d="M41.4,67c-1.1,3-5,4.1-6.8,6.7-.1.2-.2.3-.2.5,0,.4.3.7.6.9,1.9,1.2,4.4,1.1,6.5.4s4-2,6-3.1,4.2-2,6.4-1.8c1.8.1,3.5,1,5.3,1.5,1.4.4,2.9.6,4.4.9,1.3.2,2.9.5,4-.3,1-.8,1.3-2.3.9-3.5s-1.2-2.2-2.1-3.2"
           id="path14"
           style="stroke-width:1.64083601;stroke-dasharray:none" />
        <path
           class="cls-1"
           d="M44.1,80.7c-.1-2.5.5-5.1,1.9-7.2"
           id="path15"
           style="stroke-width:1.64083601;stroke-dasharray:none" />
        <path
           class="cls-1"
           d="M55.2,70.9c1.9,2.9,3.1,6.2,3.5,9.7"
           id="path16"
           style="stroke-width:1.64083601;stroke-dasharray:none" />
        <path
           class="cls-1"
           d="M48.2,291c-.5-3,1.4-5.9,4-7.6s5.5-2.5,8.4-3.5c3.6-1.3,7.1-3,10-5.5,6-5,9.5-12.5,11.3-20.1,2.3-9.5,2.3-19.4,0-28.9-1.6-6.9-4.4-13.5-6.3-20.3-3.6-12.8-1.4-27.7,2-39.9l.4-2.1c1.7-11.1,1.6-22.5-1.5-33.3-2.1-7.4-5.5-14.4-6.5-22-.1-1.2-.2-2.3,0-3.5.3-1.3.9-2.4,1.5-3.5,3.1-5.3,6.7-10.4,8.9-16.1,1.2-3,2-6.3,4.3-8.6,1.8-1.8,4.3-2.6,6.7-3.3,4.6-1.3,9.4-2.1,13.9-3.9s8.6-5,10.3-9.5"
           id="path17"
           style="stroke-width:1.64083601;stroke-dasharray:none" />
        <path
           class="cls-1"
           d="M77,266.8c-.9,2.8-2.1,6-.2,8.1.8.9,2,1.4,2.8,2.3,1.7,1.7,1.8,4.3,2.5,6.6,1.4,4.2,4.9,7.2,8.3,10"
           id="path18"
           style="stroke-width:1.64083601;stroke-dasharray:none" />
        <path
           class="cls-1"
           d="M77.3,266.4c-1.1,2.9-4.4,4.3-7.4,5-3,.7-6.1.7-9.1,1.5-5.7,1.4-10.4,5.6-13.8,10.3"
           id="path19"
           style="stroke-width:1.64083601;stroke-dasharray:none" />
        <path
           class="cls-1"
           d="M76.8,267.1c-1,.4-2.3.1-3.3.5-3.2,1-6.6,1.6-10,1.6-3.3,0-6.7-.5-10-.2s-6.8,1.7-8.5,4.6"
           id="path20"
           style="stroke-width:1.64083601;stroke-dasharray:none" />
        <path
           class="cls-1"
           d="M79.5,251.4c2.4-5.6-1.6-13.2-3.1-16.9-1.1-2.5-1.5-5.2-2.1-7.8-1.9-7.7-6-14.9-11.7-20.5-3.8-3.7-8.2-6.7-12.1-10.2-3.9-3.5-7.5-7.7-9-12.8-.2,7.1-1.4,14-1.9,21.1-.5,6.2-.3,12.9,3.3,18.1,2.5,3.7,6.5,6.1,10.1,8.6,3.9,2.6,7.6,5.5,11.1,8.6,2.4,2.1,4.7,4.3,6.4,7s2.6,5.9,1.9,9"
           id="path21"
           style="stroke-width:1.64083601;stroke-dasharray:none" />
        <path
           class="cls-1"
           d="M43.9,193.3c-.6,5.4,2,10.7,5.3,15,3.4,4.3,7.5,7.9,11,12.1,3.4,4.1,6,8.9,7.7,13.9,1.2,3.5,2,7.4,4.6,10.1"
           id="path22"
           style="stroke-width:1.64083601;stroke-dasharray:none" />
        <path
           class="cls-1"
           d="M39.9,254.9c-.5,1-3,3.7-3.9,4.3s-.9-.1-.7-.6c1.4-4.6,5.4-8.1,10-9.6s10.4-1.1,15.3.4c4.9,1.5,9.4,3.9,13.4,7.1"
           id="path23"
           style="stroke-width:1.64083601;stroke-dasharray:none" />
        <path
           class="cls-1"
           d="M77.5,264.1c-4.5.8-9.1,1.2-13.8,1.2-2.7,0-5.4-.1-7.9-1.1-2.5-1-5.2-3.5-8.4-6s-6.1-4-9.5-3.3"
           id="path24"
           style="stroke-width:1.64083601;stroke-dasharray:none" />
        <path
           class="cls-1"
           d="M44.6,251.9h2.2c1.2,0,2.3,0,3.5.3,2.3.5,4.3,1.9,6.3,3s4.3,2.2,6.6,1.8"
           id="path25"
           style="stroke-width:1.64083601;stroke-dasharray:none" />
        <path
           class="cls-1"
           d="M76.8,264.2c-1-.6-2.1-1.3-2.7-2.4s-.5-2.6.6-3.3c1.1-.7,2.6,0,3.6-.7.5-.3.9-.9,1.4-1.2s1.4-.4,1.6.2"
           id="path26"
           style="stroke-width:1.64083601;stroke-dasharray:none" />
        <path
           class="cls-1"
           d="M81.1,256.7c.3-1.1.4-2.4.2-3.5,0-.5-.2-1-.6-1.3-.4-.4-1.1-.4-1.7-.4-1,0-2,0-3.1.1-.6,0-1.3,0-1.7.5-.3.3-.5.7-.6,1.1-.4,1.8.3,3.8,1.8,5"
           id="path27"
           style="stroke-width:1.64083601;stroke-dasharray:none" />
        <path
           class="cls-1"
           d="M49,248.1c-3-.3-5.9-1.7-7.9-4.5-.8-1.1-1.3-2.4-2-3.5-1.7-2.4-4.4-3.8-7.1-5.1,2.8,0,5.5.7,8.3.5,1.8,0,3.5-.5,5.3-.8,4.4-.8,8.9-.6,13.2.6"
           id="path28"
           style="stroke-width:1.64083601;stroke-dasharray:none" />
        <path
           class="cls-1"
           d="M77.2,29.3c-1.2-1-2.5-1.9-4-2.4s-3.1-.8-4.6-.2c-1.1.4-1.9,1.1-2.9,1.6-1.1.7-2.4,1.2-3.7,1.4-1.2.2-2.4.1-3.6.3-1.7.2-3.4.9-4.6,2.1s-1.9,3-1.6,4.7c.2,1,.7,1.9,1,2.9.4,1.2.6,2.6.7,3.9,0,1.1.2,2.2.7,3.1.5.8,1.3,1.3,2.1,1.7,1.5.8,3,1.6,4.7,1.7"
           id="path29"
           style="stroke-width:1.64083601;stroke-dasharray:none" />
        <path
           class="cls-1"
           d="M74.1,34.1c1.1-1.7,2.9-3,5-3.6s4.2-.3,6.1.6c1.1.6,2.1,1.4,3.3,1.9,1.6.7,3.7.8,4.7,2.2.6.7.7,1.8.4,2.7-.3.9-1.1,1.6-2,2.1-1.9,1.1-4.2,1.2-6.4,1.2s-4.4-.1-6.6.5"
           id="path30"
           style="stroke-width:1.64083601;stroke-dasharray:none" />
        <path
           class="cls-1"
           d="M80,41.5c1.5-.1,3.2,0,4.5.8,1,.6,1.6,1.7,2.3,2.6.9,1.2,1.9,2.3,2.5,3.6s1,2.9.3,4.2c-.6,1.2-1.9,1.9-3.2,2.1s-2.6,0-3.9-.4-2.5-.9-3.8-1.2c-1.2-.3-2.5-.4-3.7-.7s-2.4-.9-3.2-1.8c-.4.5-1.3,1.6-1.9,1.9"
           id="path31"
           style="stroke-width:1.64083601;stroke-dasharray:none" />
        <path
           class="cls-1"
           d="M46.1,50c.4-1.1,1.7-2.1,2.6-2.8,1.5-1,3.7-2,5.5-2"
           id="path32"
           style="stroke-width:1.64083601;stroke-dasharray:none" />
        <path
           class="cls-1"
           d="M61.3,29.8c1.7,0,3.4.4,4.9,1.1s2.9,1.9,3.6,3.4"
           id="path33"
           style="stroke-width:1.64083601;stroke-dasharray:none" />
        <path
           class="cls-1"
           d="M77.2,29.3l1.6,1.3"
           id="path34"
           style="stroke-width:1.64083601;stroke-dasharray:none" />
        <path
           class="cls-1"
           d="M93.3,17.8l-1.9-5c-.5-1.4-1.2-2.9-2.5-3.6-.6-.3-1.2-.5-1.9-.6-2.6-.3-5.1.7-7.2,2.2-1.6,1.1-3,2.7-3.6,4.5s-.2,4.1,1.2,5.4c.8.7,1.8,1.1,2.4,1.9,1.3,1.4,1.3,3.8,2.9,4.9,1.2.8,2.7.5,4.1,0,1.8-.6,3.4-1.4,5-2.4"
           id="path35"
           style="stroke-width:1.64083601;stroke-dasharray:none" />
        <path
           class="cls-1"
           d="M90.6,11.2c-.3-1.7.7-3.6,2-4.7,1.5-1.2,3.5-1.5,5.4-1.5,1.1,0,2.2,0,3.1.5,1.3.7,1.9,2.2,2,3.6s-.5,2.8-1.2,4.1c-1,1.8-2.2,3.4-3.7,4.8"
           id="path36"
           style="stroke-width:1.64083601;stroke-dasharray:none" />
        <path
           class="cls-1"
           d="M103.1,9.4c1.3,0,3.6.1,4.9.4.5,0,1.1.2,1.6.5.5.3.9.8,1.3,1.1,1,.8,2.3,1,3.4,1.6,1.5.9,2.4,2.8,2.4,4.6s-.8,3.5-1.9,4.9-2.6,2.5-4.1,3.4c-.4.3-.9.5-1.3.7-.6.2-1.2.2-1.9.2-.8,0-1.6,0-2.4-.1"
           id="path37"
           style="stroke-width:1.64083601;stroke-dasharray:none" />
        <path
           class="cls-1"
           d="M110.5,25.9c.7,1.2,2.1,2.7,3,3.8s1.7,2.4,1.6,3.7c0,.2,0,.3-.1.4-.1.1-.3.2-.5.2-2.6.7-5.4.2-8-.4-1.4-.3-2.8-.7-4-1.6-.7-.6-1.3-1.3-2-1.9-.7-.6-1.6-1.1-2.5-1.5-.5-.2-1.1-.5-1.6-.4-.7.1-1.2.8-1.6,1.4-.9,1.4-2,3.1-2.9,4.5"
           id="path38"
           style="stroke-width:1.64083601;stroke-dasharray:none" />
        <path
           class="cls-1"
           d="M81.1,30.2c0-1.5.2-2.9.6-4.1"
           id="path39"
           style="stroke-width:1.64083601;stroke-dasharray:none" />
        <path
           class="cls-1"
           d="M79.3,17.1c.5,0,.9.2,1.3.4,2.7.9,5.6,1.2,8.4.8"
           id="path40"
           style="stroke-width:1.64083601;stroke-dasharray:none" />
        <path
           class="cls-1"
           d="M103.9,18.7c1.5,0,3,0,4.5-.2,1.8-.3,3.4-1.1,5-1.8"
           id="path41"
           style="stroke-width:1.64083601;stroke-dasharray:none" />
        <path
           class="cls-1"
           d="M73.8,97.1c.6-.9,1.5-1.7,2.5-2.2,1.5-.8,3.2-1,4.8-1.7,2.4-1,4.3-3.1,5.7-5.3.8-1.3,1.5-2.6,2.7-3.5"
           id="path42"
           style="stroke-width:1.64083601;stroke-dasharray:none" />
        <path
           class="cls-1"
           d="M115.7,59.5c.6-2.9,2.3-5.6,4.7-7.4.5-.4,1-.7,1.6-.8s1.3.1,1.6.6c.5.7,0,1.7-.7,2.3-1.4,1.3-3.5,1.5-5,2.6-1.4,1-2.2,2.7-2.9,4.3"
           id="path43"
           style="stroke-width:1.64083601;stroke-dasharray:none" />
        <path
           class="cls-1"
           d="M113.6,63.3c1.2-1.3,3-1.8,4.8-2.1s3.6-.4,5.2-1.2"
           id="path44"
           style="stroke-width:1.64083601;stroke-dasharray:none" />
        <path
           class="cls-1"
           d="M108.5,68.7c1.6-.1,3.2.2,4.7-.1.9-.2,1.7-.5,2.5-.9,1.6-.8,3.2-1.6,4.7-2.6,0,2.3-.9,4.6-2.8,5.9s-4.7,1.2-6.3-.4c-.3-.4-.6-.8-1-1-.3-.2-.7-.4-1-.5-.8-.3-1.5-.6-2.3-.9"
           id="path45"
           style="stroke-width:1.64083601;stroke-dasharray:none" />
        <path
           class="cls-1"
           d="M56,88.4c2.7-1.2,5.7-1.9,8.7-1.9"
           id="path46"
           style="stroke-width:1.64083601;stroke-dasharray:none" />
        <path
           class="cls-1"
           d="M36,90.9c2.9,2.1,7.2,2,10.1-.2"
           id="path47"
           style="stroke-width:1.64083601;stroke-dasharray:none" />
        <path
           class="cls-1"
           d="M36.4,85.4c1.5-.8,3.2-1.7,4.9-1.6,1.8,0,3.4,1.2,4.2,2.8"
           id="path48"
           style="stroke-width:1.64083601;stroke-dasharray:none" />
        <path
           class="cls-1"
           d="M42,103.9c.5-2.1,2.4-3.6,4.2-4.9"
           id="path49"
           style="stroke-width:1.64083601;stroke-dasharray:none" />
        <path
           class="cls-1"
           d="M58.3,96.7c1.8,1.1,3.4,2.6,4.5,4.4"
           id="path50"
           style="stroke-width:1.64083601;stroke-dasharray:none" />
        <path
           class="cls-1"
           d="M51,86.2c-.9-3.4-1.4-6.9-1.3-10.4,0-.7,0-1.5.5-2.1"
           id="path51"
           style="stroke-width:1.64083601;stroke-dasharray:none" />
        <path
           class="cls-1"
           d="M53.6,83.3s1.7-5.9,0-10.3"
           id="path52"
           style="stroke-width:1.64083601;stroke-dasharray:none" />
        <path
           class="cls-1"
           d="M83.8,77.1c1.3-2.5,3-4.9,5.4-6.5,1.2-.8,2.6-1.4,3.8-2.2,5.1-3,8.6-8.7,8.5-14.6,0-.4,0-.8-.4-1-.2,0-.4,0-.6,0-2.1.6-3.7,2.4-4.7,4.3s-1.5,4.1-2,6.3-1.1,4.3-2.3,6.1"
           id="path53"
           style="stroke-width:1.64083601;stroke-dasharray:none" />
        <path
           class="cls-1"
           d="M92.8,68.4c1.8-1.8,3.2-4,4-6.4.7-2.1.8-4.4,1.9-6.3"
           id="path54"
           style="stroke-width:1.64083601;stroke-dasharray:none" />
        <path
           class="cls-1"
           d="M56.6,71.2c1.1,1.4,2.5,2.6,4,3.6.9.5,1.9,1,2.7,1.6,1.5,1.1,2.5,2.8,2.8,4.5.2,1,.2,2,.2,3"
           id="path55"
           style="stroke-width:1.64083601;stroke-dasharray:none" />
        <path
           class="cls-1"
           d="M65.5,79.2c-.5-1-.7-2-.9-3.1,0-.5,0-1.1-.2-1.6s-.3-1-.7-1.4"
           id="path56"
           style="stroke-width:1.64083601;stroke-dasharray:none" />
        <path
           class="cls-1"
           d="M92.8,34.8c1.8-2.2,4.1-4.1,6.6-5.5"
           id="path57"
           style="stroke-width:1.64083601;stroke-dasharray:none" />
        <path
           class="cls-1"
           d="M120.3,21.8c-.2-.4-.3-1-.2-1.4s.7-.8,1.1-.6c.4.3.4,1,.9,1.2"
           id="path58"
           style="stroke-width:1.64083601;stroke-dasharray:none" />
        <path
           class="cls-1"
           d="M110.9,26.7c2.5-1.9,5.5-3.2,8.7-3.7-.4,1.4-.7,3.1.3,4,.4.4,1,.6,1.5.7,1.7.5,3.4,1.1,5,1.6.3.1.7.2,1.1.2.8,0,1.5-.8,1.7-1.6s0-1.7-.2-2.5c-.3-1.1-.7-2.2-1.5-3.1s-1.7-1.6-2.9-1.8c0,0-3.3-.8-5,2.4"
           id="path59"
           style="stroke-width:1.64083601;stroke-dasharray:none" />
        <path
           class="cls-1"
           d="M127.4,22.4c7.1-1.2,15-.9,22.1,0,2.9.4,5.9.9,8.5-.2.5-.2,1.1-.5,1.7-.4s1.1.7.8,1.2c-.2.3-.6.4-1,.4-1.3,0-2.7-.2-3.8-.9"
           id="path60"
           style="stroke-width:1.64083601;stroke-dasharray:none" />
        <path
           class="cls-1"
           d="M136.2,21.6c.6.3.7,1.4.7,2.1s-.1,1.3,0,2c.1.8.6,1.4,1.1,2.1.5.6,1,1.2,1.6,1.6s1.5.4,2.1,0c.6-.4.8-1.2.9-1.9.2-.8.2-1.7,0-2.5s-.9-1.5-1.7-1.7c-.5,0-1,0-1.5,0-1.1-.3-2-1.6-3.1-1.4"
           id="path61"
           style="stroke-width:1.64083601;stroke-dasharray:none" />
        <path
           class="cls-1"
           d="M155.8,22.7c.5-.8,1.2-1.5,2.1-1.9s.7.2.5.6-.2.3-.3.4c-.3.3-.6.5-1,.7"
           id="path62"
           style="stroke-width:1.64083601;stroke-dasharray:none" />
        <path
           class="cls-1"
           d="M157.4,22.3c-.1.2-1.7.6-1.5.3"
           id="path63"
           style="stroke-width:1.64083601;stroke-dasharray:none" />
        <path
           class="cls-1"
           d="M71.5,54.1c.5-.8,1.1-1.6,1.8-2.3"
           id="path64"
           style="stroke-width:1.64083601;stroke-dasharray:none" />
        <path
           class="cls-1"
           d="M73.2,52c1.3.5,2.6,1.2,3.6,2.1s1.8,2.2,2.1,3.6c.1.9,0,1.8,0,2.7-.2,2.4-.5,4.8-1.6,6.9-.7,1.4-1.8,2.5-2.7,3.7-1.2-1.5-1.7-3.6-1.3-5.5.2-1.2.8-2.3,1.5-3.2.9-1.3,2-2.4,2.7-3.7s1-2.9-.1-4"
           id="path65"
           style="stroke-width:1.64083601;stroke-dasharray:none" />
        <path
           class="cls-1"
           d="M74.6,75.8c-.3.6-.9,1-1.3,1.5-.5.6-.9,1.2-1.3,1.8-.4.7-.7,1.5-.7,2.3-.1,2.5,2.1,4.8,1.7,7.2.3-1,1.2-1.7,1.8-2.5,1-1.3,1.6-2.8,1.7-4.3,0-.7,0-1.4-.3-2.1-.3-.8-1.9-2.9-1.7-3.7"
           id="path66"
           style="stroke-width:1.64083601;stroke-dasharray:none" />
        <path
           class="cls-1"
           d="M75,68.2c-.2-1.9.7-3.6,1.6-5.3s1.9-3.4,1.8-5.2"
           id="path67"
           style="stroke-width:1.64083601;stroke-dasharray:none" />
        <path
           class="cls-1"
           d="M50.8,65.8c-.5.1-1-.3-1.2-.8s-.1-1-.2-1.6-.2-1.1-.6-1.4c-.1,0-.2-.2-.4-.2-.2,0-.5.2-.6.4-.5.6-.6,1.5-.4,2.3s.6,1.5,1.2,2c.8.9,2,1.5,3.2,1.7s2.5-.1,3.4-1c1-.9,1.5-2.3,1.7-3.6.1-.6.2-1.4-.4-1.7-.2-.1-.5-.2-.6,0-.1.1-.1.3-.2.4-.3,1.4-1.2,2.8-2.6,3.3"
           id="path68"
           style="stroke-width:1.64083601;stroke-dasharray:none" />
        <path
           class="cls-1"
           d="M51.9,62.2l-.3-1.4c-.1-.5-.2-1-.1-1.6s.5-1,1-1.1c.1,0,.3,0,.4,0,0,0,.2.1.2.2.5.5.6,1.4.4,2.1s-.6,1.4-1,2"
           id="path69"
           style="stroke-width:1.64083601;stroke-dasharray:none" />
        <path
           class="cls-1"
           d="M52.8,56.3c-.5.2-1-.2-1.3-.7-.4-.7-.5-1.4-.4-2.2.1-.7.4-1.4,0-2"
           id="path70"
           style="stroke-width:1.64083601;stroke-dasharray:none" />
        <path
           class="cls-1"
           d="M53.4,54.3c-.3-1.6.2-3.4,1.3-4.5"
           id="path71"
           style="stroke-width:1.64083601;stroke-dasharray:none" />
        <path
           class="cls-1"
           d="M40.2,52.2l1.3.4c1.1.4,2.1.7,3,1.4s1.7,1.5,2,2.6"
           id="path72"
           style="stroke-width:1.64083601;stroke-dasharray:none" />
        <path
           class="cls-1"
           d="M35.4,55.6c1.9,0,3.7,0,5.6.2s3.7.9,5.2,2"
           id="path73"
           style="stroke-width:1.64083601;stroke-dasharray:none" />
        <path
           class="cls-1"
           d="M36.8,61.4c2.7-.1,5.4-.7,7.8-1.8"
           id="path74"
           style="stroke-width:1.64083601;stroke-dasharray:none" />
        <path
           class="cls-1"
           d="M57.4,58.6c2.2-2.5,5.6-3.8,8.9-4.5"
           id="path75"
           style="stroke-width:1.64083601;stroke-dasharray:none" />
        <path
           class="cls-1"
           d="M56.9,57.6c1.2-2.2,3.1-4.1,5.4-5.2"
           id="path76"
           style="stroke-width:1.64083601;stroke-dasharray:none" />
        <path
           class="cls-1"
           d="M59.8,59.5c2,1,4.1,1.6,6.3,1.9.9.1,1.9.2,2.7-.3"
           id="path77"
           style="stroke-width:1.64083601;stroke-dasharray:none" />
        <path
           class="cls-1"
           d="M64.1,57.7l4.3-.5"
           id="path78"
           style="stroke-width:1.64083601;stroke-dasharray:none" />
        <path
           class="cls-1"
           d="M70.3,45.2c-.6-.9-1.1-1.8-1.5-2.8-.2-.5-.4-1-.9-1.2-.5-.2-1.1.3-1.2.9s0,1.1.2,1.6c.3,1,.7,2,1.4,2.9s1.7,1.4,2.8,1.4c1,0,1.9-.5,2.6-1.3s1.1-1.6,1.6-2.6c.3-.6.5-1.2.7-1.9.2-.8.2-1.9-.6-2.2-.2,0-.3,0-.5,0-.2.1-.3.4-.4.7-.2.9-.3,1.8-.6,2.7s-.9,1.7-1.7,2c-.2-.1-.3-.4-.3-.6,0-1,.5-1.9.9-2.9s.4-2.2-.5-2.8c-.6-.3-1.4-.1-1.9.4s-.5,1.3-.2,2c.2.4.5.9.4,1.3"
           id="path79"
           style="stroke-width:1.64083601;stroke-dasharray:none" />
        <path
           class="cls-1"
           d="M72.5,37c.5-1.3.6-2.7.2-4s-1.2-2.5-2.3-3.2"
           id="path80"
           style="stroke-width:1.64083601;stroke-dasharray:none" />
        <path
           class="cls-1"
           d="M57.8,33.7c2.2-.3,4.4-.4,6.5.1s4.1,1.7,5.2,3.6"
           id="path81"
           style="stroke-width:1.64083601;stroke-dasharray:none" />
        <path
           class="cls-1"
           d="M56.6,41.9c.6-.7,1.4-1.3,2.3-1.6.7-.2,1.5-.2,2.2-.4,1.1-.2,2.1-.7,3-1.2.6-.3,1.2-.6,1.7-1"
           id="path82"
           style="stroke-width:1.64083601;stroke-dasharray:none" />
        <path
           class="cls-1"
           d="M62.3,39.6c-.7.3-1.5.5-1.8,1-.2.3-.3.8-.5,1.1-.4,1-1.1,1.8-1.9,2.4"
           id="path83"
           style="stroke-width:1.64083601;stroke-dasharray:none" />
        <path
           class="cls-1"
           d="M78.4,45.7c3.6.3,7,2.4,8.9,5.5"
           id="path84"
           style="stroke-width:1.64083601;stroke-dasharray:none" />
        <path
           class="cls-1"
           d="M113.7,50.1c.1-5-2.2-10-6.1-13.2-.3-.3-.7-.5-1.2-.5-.6,0-1,.5-1.3,1s-.4,1.1-.7,1.6c-.3.5-.8.9-1.3,1.2-.6.3-1.3.6-1.6,1.2-.2.5-.1,1,0,1.5.6,2.3,2.1,4.4,4.1,5.7s4.4,1.9,6.8,1.6c.3,0,.6-.4.9-.2,1.3-2-2.7-2.7-4.6-3.2"
           id="path85"
           style="stroke-width:1.64083601;stroke-dasharray:none" />
        <path
           class="cls-1"
           d="M103.1,35.6c-1.7,1.7-4.5,1.9-6.3,3.5-1.4,1.2-2,3.1-2.1,4.9s.3,3.7.7,5.4c3-.2,5.8-2.3,6.8-5.1"
           id="path86"
           style="stroke-width:1.64083601;stroke-dasharray:none" />
        <path
           class="cls-1"
           d="M103.4,35.7c.4,1.4.3,2.9-.2,4.3"
           id="path87"
           style="stroke-width:1.64083601;stroke-dasharray:none" />
        <path
           class="cls-1"
           d="M103.3,35.8c-.1-.4-.4-.8-.7-1.1-.9-.9-2.3-.9-3.6-1-1.9,0-3.8,0-5.6.4"
           id="path88"
           style="stroke-width:1.64083601;stroke-dasharray:none" />
        <path
           class="cls-1"
           d="M102.6,34.7c.4.5,1,.7,1.6.9.1,0,.2,0,.3.2.2.2.2.6.2.9,0,.4,0,.8.2,1.2"
           id="path89"
           style="stroke-width:1.64083601;stroke-dasharray:none" />
        <path
           class="cls-1"
           d="M107,39.4c1.1,1,2,2.1,2.8,3.3"
           id="path90"
           style="stroke-width:1.64083601;stroke-dasharray:none" />
        <path
           class="cls-1"
           d="M95.9,24.2c.8-.1,1.3-.9,1.6-1.6s.4-1.6.8-2.3c.1-.2.3-.5.6-.6s.6-.1.8,0c.2.2.2.4.2.7.1,1.3.2,2.6-.1,3.8s-1.1,2.4-2.2,2.9-2.7.3-3.4-.7c-.5-.7-.6-1.5-1-2.3-.3-.5-.7-.9-1-1.3s-.6-1-.6-1.6.6-1.1,1.1-1c.7.2.9,1.1,1.2,1.8.1.2.3.4.5.4.3,0,.5-.3.5-.6s-.1-.6-.3-.8c-.3-.7-.3-1.4,0-2s1.3-.9,1.8-.4c.6.5.5,1.4.2,2.1-.2.6-.5,1.2-.9,1.8"
           id="path91"
           style="stroke-width:1.64083601;stroke-dasharray:none" />
        <path
           class="cls-1"
           d="M102.6,17.3c1.1-2.2,3.4-3.8,5.9-4.2"
           id="path92"
           style="stroke-width:1.64083601;stroke-dasharray:none" />
        <path
           class="cls-1"
           d="M83.5,23.9c2.1-.2,4.1-1.1,5.6-2.5"
           id="path93"
           style="stroke-width:1.64083601;stroke-dasharray:none" />
        <path
           class="cls-1"
           d="M127.2,28.3c.3-.4.1-.9,0-1.4-.1-.4-.3-.7-.5-1-.1-.2-.3-.4-.5-.5-.7-.6-1.3-1.3-2-1.9"
           id="path94"
           style="stroke-width:1.64083601;stroke-dasharray:none" />
        <path
           class="cls-1"
           d="M123.2,25.8c-1-.7-1.6-1.9-1.6-3.1,0-.4.1-.8.2-1.2,0-.3.2-.7.5-.8"
           id="path95"
           style="stroke-width:1.64083601;stroke-dasharray:none" />
        <path
           class="cls-1"
           d="M50.4,95.5c-.3-.4-.8-.7-1.2-.9-.3-.1-.7-.2-.9,0-.2.1-.3.4-.3.7,0,.5.2,1,.4,1.4.3.7.7,1.3,1.3,1.7s1.4.6,2.1.4c.4-.1.8-.4,1.1-.8.7-.7,1.2-1.6,1.3-2.6,0-.3,0-.6,0-.9s-.5-.4-.7-.3c0,0-.2.2-.2.3-.4.7-.6,1.6-1.1,2.3-.2.3-.4.5-.7.5-.3,0-.5-.1-.6-.4s-.2-.5-.2-.7c0-.3,0-.7-.3-1"
           id="path96"
           style="stroke-width:1.64083601;stroke-dasharray:none" />
        <path
           class="cls-1"
           d="M50.2,93c-.1-.4-.1-.8-.1-1.2,0-.6.3-1.2.8-1.6,0,0,.2-.1.3-.1.1,0,.2,0,.3.1.4.3.5.9.5,1.4s-.3,1-.4,1.5"
           id="path97"
           style="stroke-width:1.64083601;stroke-dasharray:none" />
        <path
           class="cls-1"
           d="M42.5,237.9c4.3.7,8.5,2.2,12.4,4.3"
           id="path98"
           style="stroke-width:1.64083601;stroke-dasharray:none" />
        <path
           class="cls-1"
           d="M152.1,255c-9.5-.8-19.2.6-28.1,4"
           id="path99"
           style="stroke-width:1.64083601;stroke-dasharray:none" />
        <path
           class="cls-1"
           d="M74.4,76.1c.9-2.5,3.1-4.3,4.1-6.7.2-.4.3-.8.3-1.3,0-.7-.4-1.4-.8-2.1"
           id="path100"
           style="stroke-width:1.64083601;stroke-dasharray:none" />
        <path
           class="cls-1"
           d="M123.3,60.2c.3-.1.6-.3.8-.6.1-.1.3-.3.3-.4s0-.4,0-.5c-.2-.2-.4-.2-.7,0-.1,0-.2,0-.3.1-.1.1-.2.3-.3.5-.3.6-.9,1-1.5,1.4"
           id="path101"
           style="stroke-width:1.64083601;stroke-dasharray:none" />
        <path
           class="cls-1"
           d="M103.5,21c1.5,1.3,3.5,2,5.5,1.8s3.8-1.4,4.8-3.2"
           id="path102"
           style="stroke-width:1.64083601;stroke-dasharray:none" />
        <path
           class="cls-1"
           d="M82.7,12.5c1.4-.5,3.1,0,4.3.8s2.2,2.1,3,3.4"
           id="path103"
           style="stroke-width:1.64083601;stroke-dasharray:none" />
        <path
           class="cls-1"
           d="M96.5,48.1c-.2-2.2.6-4.5,2.1-6.2,1-1.1,2.4-2,3.2-3.3"
           id="path104"
           style="stroke-width:1.64083601;stroke-dasharray:none" />
        <path
           class="cls-1"
           d="M56.7,89.7c1.4,1.2,2.9,2.3,4.6,2.9s3.7.7,5.4,0"
           id="path105"
           style="stroke-width:1.64083601;stroke-dasharray:none" />
        <path
           class="cls-1"
           d="M40,88.1c.9-.3,1.9-.2,2.7.4"
           id="path106"
           style="stroke-width:1.64083601;stroke-dasharray:none" />
        <path
           class="cls-1"
           d="M78.9,55.9c.5.2,1,.6,1.4,1,0,0,0,.1.2.1.1,0,.2,0,.3-.2.4-.5,1.1-.9,1.7-.9,1,0,1.9.5,2.7,1.1,1.3,1.2,2.3,2.7,2.9,4.3s1,3.4,1.3,5.1c.1,1,.2,2-.2,2.9-.2.3-.4.7-.7.8-.6.3-1.3.2-1.9,0s-1.1-.7-1.7-1c-.8-.4-1.7-.6-2.6-.8s-1.8-.4-2.6-.9-1.4-1.3-1.5-2.2"
           id="path107"
           style="stroke-width:1.64083601;stroke-dasharray:none" />
        <path
           class="cls-1"
           d="M80.7,56.9l-1.3,1.8c0,0,0,.1,0,.2,0,0,0,.1,0,.2,1.2,3.4,3.6,6.5,6.7,8.5"
           id="path108"
           style="stroke-width:1.64083601;stroke-dasharray:none" />
        <path
           class="cls-1"
           d="M82.8,58.7c1.8,1.2,3.1,3.1,3.5,5.2"
           id="path109"
           style="stroke-width:1.64083601;stroke-dasharray:none" />
        <path
           class="cls-1"
           d="M59.6,47c1.2,0,2.3-.5,3.3-1.1s1.8-1.5,2.6-2.3"
           id="path110"
           style="stroke-width:1.64083601;stroke-dasharray:none" />
      </g>
    </g>
  </g>
</svg>
