<?xml version="1.0" encoding="UTF-8"?>
<svg xmlns="http://www.w3.org/2000/svg" version="1.1" viewBox="0 0 1343.6 1798.6">
  <defs>
    <style>
      .cls-1 {
        fill: #fff;
      }
    </style>
  </defs>
  <!-- Generator: Adobe Illustrator 28.7.1, SVG Export Plug-In . SVG Version: 1.2.0 Build 142)  -->
  <g>
    <g id="Layer_1">
      <path d="M493.7,365.6c5.9,3.2,7,9.2,8.5,14.9,2.7,10.7,7.3,19.9,18.3,24.5-11.4-.7-16.5-9.3-21.9-18.1-14.4,3.5-26,10.3-32.7,21.6,4.5,17.1,8.6,32.8,12.8,48.8,6.3,0,13-5.2,18.5,4.5,4-10.1,7.3-17.9,10.4-25.9,1.2-3.1,1.6-6.5,2.6-9.6,6.2-19.9,25.4-27.3,42.8-16.1,6.3,4.1,12.8,6.7,20.1,8.2,11,2.2,15.9.2,22.1-10.1,10.3,12.1,23.5,19.4,38.1,24.8,13.4,5,26.9,3.1,40.5,2,2.1-.2,5.2-2.5,5.7-4.5,1.8-6.3,3.5-13,.2-19.5-5.1-9.9-11.3-18.7-21.5-24.1-4.9-2.6-9-6.7-13.9-9.1-5.6-2.6-11.8-4-18.1-6,3.5-4.1,8.2-2.9,12.6-2.2,5.3.8,10.4,2.6,15.6,3.1,15.2,1.5,29.2-1.3,40-13.2,7.1-7.8,7-16.3-1.8-22.2-13.2-8.9-26.7-17.6-41.1-24.3-16-7.4-34.3,3.2-43.5,16-1.2,1.7-2.1,3.7-4,7.1.2-14.3,12.5-24.7,32.9-29.8,2.3-3.9,4.6-7.9,6.7-11.5-2.4-10.5-10.3-16.3-17.8-22.4-9.6-7.8-14.7-17.8-15.1-30.2-.3-9.8,2.2-18.5,9.7-25.2,10-9,21.4-16.1,34-20.5,10.6-3.8,21.6-3.3,32.7,2.1-.6-12.8,7.5-17.2,17.6-19.7,9.9-2.4,19.7-3.3,29.4.8,9.9,4.2,15.7,11.9,17.8,22.5,4.4-.3,8.4-.7,12.3-.8,8.2-.2,15.7,1.9,22.7,6.3,5.3,3.4,11.1,5.9,16.5,9.1,4.5,2.7,9.4,5.2,13.2,8.7,6.8,6.3,9.8,14.5,7.5,23.6-2.3,9.2-5.6,18.1-8.5,27.2,6.4-1.8,13.6-3.8,21.4-6,1-5-1.9-11.6,5.5-15.1,5.6,5.6,13.2,5.4,20.8,5.7,4.2.1,8.9,1.1,12.4,3.2,4.6,2.7,8.9,2.6,13.3,1.3,6.6-1.8,13.6-2.5,19.4-7.2,2.9-2.3,7.4-2.8,11.3-3.4,8-1.2,13.4,2.5,15.5,9,15.3.7,29.9.8,44.4,2.2,14.2,1.4,28.2,4,42.1,6.1,1.8-3.4,2.5-7.5,4.7-8.5,3.9-1.8,6.5-7.2,12.8-5.1-.9,2.9-1.7,5.5-2.4,8.1,3.3-.5,6.6-1.6,9.8-1.3,3,.3,7.2,1.4,8.4,3.6,2.1,3.8,1.2,8.4-2.5,11.8-4.6,4.1-12.4,5-16.2.4-5.4-6.5-11.7-7.2-19.4-7.4-8.9-.2-17.8-2.2-26.7-3.2-10.6-1.1-21.1-2.1-31.7-2.7-3.8-.2-7.7.7-11.8,1.2.5,1.5.6,2.4.9,2.5,6.5,1.6,10.8,5.1,11.2,12.2.5,8.2-2.3,15.2-8.5,20.4-4,3.4-8.4,1.2-12-1.3-9.7-6.8-16.6-15.4-16.5-28,0-2.2-.2-4.5-.3-7.2-12.2-1-23.6-.1-35,3.3,1.2,6.3,3.1,12.3,3.4,18.4.2,4.8-.7,10-2.5,14.5-2.8,7-8.5,8.3-15.4,5.1-3.5-1.6-7.4-2.4-11.2-3.3-3.9-.9-8-1-11.7-2.2-11.2-3.6-14.4-8.9-13.5-20.8.1-1.5,0-3.1,0-4.9-1.6.1-2.7,0-3.5.3-10.4,5.1-20.9,10.3-31.5,15.6,4.3,6.9,8.5,13.2,12.2,19.7,7.3,13,2.7,22.4-12.3,23.3-9.5.6-19.2-1.2-28.7-1.9-1.5-.1-3-.4-6.1-.9,2.4,1.9,3.4,3.2,4.4,3.4,9.4,1,15.2,7.1,18.6,14.9,6.8,15.5,12.8,31.4,18.6,47.3,1.6,4.4,2.6,9.7,0,14.1-7.4.3-14.2,1-21.1.9-13.8-.3-24.6-7.4-34.3-16.4-1.7-1.6-3.1-3.5-4.8-5.5-9.8,13.6-22.1,21.8-39.5,20.9-7.9-12.8-9.5-26.3-5.6-40.8,4-14.6,13.3-23.4,27.8-27,6.9-1.7,14.2-2.7,21.2-8.1-11.7-6.6-23-8.4-35.1-6.6-4.2.6-8.6.7-11.7,4.5-2,2.4-3.5,4.3-2.6,7.9,3.2,13.5-3.3,22.9-14.6,28.6-7.2,3.7-15.7,5-23.6,7.2-1.7.5-3.7.4-5.8,1.2,10.3,4.8,16.8,12.9,22.3,22.1,4.7,8,7.2,16.1,4.4,25.7-2.8,9.5-4.8,11.8-14.9,13.2-2.3.3-4.6.5-8,.9,3.2,3.4,6.2,5.9,8.3,9.1,11.3,16.9,16.3,35.7,14,55.9-1.3,11.6-8.3,14.8-19.4,10.4-5.5-2.2-11.1-4.2-17.8-6.8,1.3,10.6.6,19.8-4.1,28.5.4-8,1.2-16,1.2-24,0-4.6-2.1-7.7-8.1-5.4-3.2,17.5-3.3,36.4-16.1,51.1-.8.9-2.8.7-5.7,1.3,1.2-2.9,1.6-4.8,2.6-6.3,9.5-13.6,12.3-29.3,14.3-45.2.4-2.8-1.5-5.9-1.7-6.8-5.8,4.8-11.6,9.6-17.5,14.3-6.6,5.2-9.6,3.8-13.5-3.9-9.1-17.5.1-31.5,8.1-45.7,2.4-4.3,6.3-7.7,9.7-11.4,5-5.4,5.8-7.8,1.2-13.8-4.5-6-10.2-11.1-15.3-16.5-5.4,3.3-6.4,6.8-5.8,12.2.9,8.5.9,17.3-.4,25.8-2.3,15.8-10.3,28-26.4,33.7,2.6,5.2,5.5,9.6,7.2,14.4,4.6,13.3,3.1,16.6-9.9,23.4,3.8,7.9,7.6,15.9,11.6,23.8.9,1.8,2.1,3.4,3.4,4.9,8,8.9,14.4,8,19.9-2.7,1.9-3.7,3.3-7.5,6.4-11.1.5,3.5.9,6.9,1.5,10.4.6,3.5,1.3,7,2.1,11.6,4.5-4.8,8-9,12.1-12.6,4.2-3.7,9-6.9,14.2-10.8-.6,4.5-3.7,6.5-6.3,8.4-11.3,8.4-17.1,18.6-15.4,33.4,2.3,20.4-7.9,36.3-20,51.2-1.1-.6-2.1-.8-2.1-1.1-.6-10.5-4.6-19.9-8.5-29.5-5-12.2-4.3-24.1,4.1-35.2-4.2-3.2-8.5-5.7-11.8-9.1-3.1-3.3-5.7-7.4-7.6-11.6-2.3-4.8-3.8-9.9-5.3-14.9-1.5-5.1-4.3-7.2-10.4-4.8,6.7,16.6,6.8,34.1,7.7,51.6.2,4.5,2.6,7.2,5.4,10.2,10.6,11.5,16.7,24.7,14.6,40.9-.3,2,0,4.3-1.1,5.8-4.3,6-2.5,11.7-.6,17.9,2,6.3,2.9,12.9,4.6,20.9,3.2-6.4,6.2-11.7,8.6-17.2,6.9-15.6,16.1-29.7,25.9-43.7,10.1-14.4,18.8-29.9,27.3-45.3,8.3-15,17-29.1,31.8-39,7.2-4.8,12.9-12.5,18.2-19.6,6.1-8.3,5.8-18.8,6.7-28.6.9-9.2.6-18.7,2.3-27.7,2.9-15.7,13.6-25.5,27.5-32.1,7.4-3.5,12.3-1.5,13.5,6.1,2.4,15.2,3.3,30.7-6,44.4-3.1,4.6-7.8,8-11.8,12-.5.5-1.1.7-1.7,1-14,7.7-26.2,17.1-30.9,34.2,1.8-.8,3.7-1.4,5.4-2.5,9.9-6.4,21-9.8,32.3-12.8,12.5-3.3,25.1-6.8,37.1-11.7,18.5-7.4,34.5-18.6,46.3-35.1,3.7-5.2,6.2-10.7,7.2-17.2,2.3-14.5,10.7-24.8,24.2-30.8,3.5-1.6,8.3-3.8,10.9.4,1.7,2.9,1.8,7.7.8,11.2-1.4,4.6-3.9,9.3-9.5,10.5,2.7-4.5,6-8.7,7.8-13.5,2-5.2-.9-7.7-6.1-6.1-8.8,2.7-15.4,8.3-21.6,18.3,6.8-1.2,11.4-2,16.2-2.8,1,1.1,2.4,2.6,3.8,4.1-5.1,7.9-12.6,11.2-21.8,11.2-2.5,5.1-5,10.1-7.7,15.5,8,1.9,13.9-2.5,20.2-4.8,2.8-1,5.6-2.3,8.4-2.5,4.2-.3,5.8,3.2,3.4,6.7-3,4.4-7.3,5.2-12.3,4.1-10.4-2.2-19.8-.5-27.4,7.6-1.3,1.4-2.9,2.7-4.5,3.8-10.4,7.6-20.7,15.2-31.5,23,7.9,4,16.3,3.4,24.8,1.8,11.2-2.1,21.7-6.1,31.5-11.9-2.3,2.2-4.3,5.3-7,6.4-7.6,3.1-15.5,5.4-23.3,8-2.4.8-4.9,1.2-7.5,1.9,1,6.3,3.8,9.6,9.5,10.5,16.5,2.8,32.7-10.4,33.6-27.5-1.9.4-3.7.7-5.6,1.1,2.7-2,5.5-4,8.2-6.1.7,13-4.7,22.7-13.7,29.8-4.5,3.6-10.5,6-16.1,7.3-7.3,1.7-14.4-.7-17.8-7.8-3.1-6.4-7.9-7.8-14-9.3-8.5-2-16.4-1.2-24.3,2.2-2.7,1.2-5.6,2.1-8.6,2.7-25.6,5.6-47.2,19.4-68.8,33.2-7.8,5-13.6,11.7-18,19.7-6.9,12.2-13.4,24.5-20.6,36.5-6.1,10.3-12.9,20.2-19.4,30.2-1,1.6-1.8,3.2-3.8,6.7,27.8-11.6,47.2-29,59.7-54.3-7.3,17.7-15.7,34.3-32.5,44.8-7.1,4.4-14.2,8.7-21.5,12.7-9.1,4.9-16.3,11.3-19.9,21.4-2,5.6-5,10.9-7.6,16.3-11.3,22.8-9.5,45.7-1,68.8.6,1.6,1.1,3.3,2.2,4.5,12.3,14.2,17.5,32.1,24.7,48.8,6,13.8,8.6,29.3,11.6,44.2,6.5,33.1,9.8,66.6,9.6,100.2-.2,26-4,51.6-10.4,77-6.5,25.8-12.6,51.8-16,78.2-6.6,51.8-2.7,103.2,15.4,152.6,13.8,37.7,22.1,76.6,27.3,117.7,2.9-2,5.3-3.4,7.5-5.2,31.6-26.5,68.2-42.5,108.5-49.9,9.1-1.7,18.5-2.2,27.8-2.9,18.6-1.4,37.3-1.5,55.7-4.2,41-6.1,80.5-17.6,117-37.9,2.3-1.3,4.7-2.4,7.3-3.7,3,3.7.6,6.6-.8,9.2-8.8,16-17.6,32.1-26.7,47.9-4.7,8.1-10.1,15.7-15.1,23.5-16.9,26.5-38.4,48.4-64.2,66.3-1.3.9-2.5,2-5.6,4.6,4.4-.9,6.5-1.2,8.5-1.8,24.4-6.6,47.7-2.3,69.9,8.1,28.7,13.4,58.5,21.7,90.1,23.9,7.6.5,15.1,2.2,22.6,3.7,2.9.6,5.7,1.8,8.2,3.4,10.6,6.6,11.9,18.8,1.2,25.1-9.5,5.6-11.5,12.7-10.5,22.3,0,.9-.6,1.8-.9,2.7-8.2-1.8-11.8-6.2-11.6-14.4,0-2.3.5-4.7.3-6.9-.2-1.9-1-3.7-1.7-6.4,6,2.1,7.5,6.2,6.5,11-.9,4.2-.7,7.8,3.2,11.4.5-2.9,1.1-5.3,1.3-7.7.6-6.1,2.8-10.6,9.3-12.8,5.1-1.7,8.1-6.1,8-11.5,0-6.1-4.4-9.9-9.7-11.3-6.4-1.7-13-2.3-19.6-3.2-12.5-1.7-25.1-3.1-37.6-4.9-20-2.9-38.1-11.5-56.5-19.2-10.1-4.2-20.5-7.8-31-10.9-10-3-20.5-3.5-30.6-.7-14.7,4-29.2,8.9-43.8,13.3-10.8,3.2-21.6,6.2-32.5,9.1-3.8,1-7.8,1.2-11.9,2.3,16.8,3.9,31.8,11.2,45.1,21.9,2.1,1.7,4.6,3.1,6,5.2,4.1,6.5,9.5,6.7,16.4,5.3,25.3-4.9,50.7-5.9,76.5-4.1,17.9,1.2,35.9,0,53.9-.3,3.6,0,7.2-.4,11.2.6-1.5.8-2.9,2.1-4.4,2.2-22.6.4-45,3.1-67.8,1.3-25.6-2.1-51.1.2-76.5,5.3,1.2,5.3,2,10.1,3.4,14.8,2.2,7.3-.2,14-3.1,20.3-1.5,3.2-5.2,6-8.6,7.6-8,3.8-16.3,6.7-25.4,10.3.4-2.5.3-4.8,1.1-6.7,1-2.4,2.7-4.6,4-6.9,6.4-11.2,3.9-15.7-9.2-16-18.2-.4-35.8,3-53,8.6-10.4,3.4-20.9,7-30.7,11.8-21.6,10.4-44.6,12.8-68.1,12.7-10.9,0-21-3.3-30.8-7.5-1-.4-1.7-1.7-2.9-2.9,3.7-3.3,7.2-1.8,10.6-1.1,19.4,4.2,39,5.3,58.6,2.4,9.1-1.3,18.1-4.1,26.9-7,16.4-5.5,32.3-12.6,48.8-17.3,11.4-3.2,23.5-4.1,35.4-5,12-.9,22.7,4,33.2,9.3.7.4,1.1,1.4,3.1,4.1-5.4-1.3-8.8-2.1-12.2-2.9-1.2,4.1-2.4,8.2-3.7,12.3,14.8,2.8,23.2-4.1,23-19.5-.2-14.3-6.9-25.4-18.2-33.8-21.2-15.8-45.3-21.9-71.4-21-30.6,1.1-60,7.2-87.9,20.2-16.9,7.9-31.4,18.5-42.8,33.5-3.8,5-8.8,9-13.3,13.4-8.6,8.5-9.5,13.4-4,23.9,3.6,6.8,7.6,12.9,13.8,18,3.9,3.2,5.6,9.4,7.6,14.6,1,2.7,1.1,6,.6,8.9-2.1,13.6,4.7,22.2,15.5,28.7,1.7,1,3.3,2.3,5.2,3,11,4.5,15.3,13.1,15.3,24.5,0,7.3,0,14.6-1.4,21.9-.9-7.8-2.1-15.7-2.7-23.5-.7-8.8-4.7-14.9-13.1-18.3-3.7-1.5-6.9-3.9-10.3-6.1-9.7-6.4-14.4-15-13.4-27,.4-5.4-1.1-11.1-2.3-16.6-.5-2.1-1.9-4.7-3.7-5.7-9.6-5.2-13.2-14.6-17.8-23.4-.7-1.4-1.7-2.8-2.8-4.5-.6,1.4-1.2,2.3-1.4,3.3-5.8,28.3-25.8,42.8-50.8,52.9-9.2,3.7-18.4,8.1-26.3,14-21.2,15.8-24.9,37.9-20.6,63-3.3,0-3.8-2.4-4.3-4.9-4.7-23.8,2.9-50.9,28.6-66,6.3-3.7,13.1-6.4,19.9-9.2,10.7-4.6,21.3-9.4,30.1-17.4,10.4-9.5,17.8-20.5,19-35.9-2.3,1.5-4.2,2.5-5.9,3.9-12,9.7-25.3,17.2-40,22-22.9,7.4-43.1,18.9-60.4,35.9-11.1,11-22.8,21.5-36.8,28.9-3.1,1.6-6.3,3.1-10.8,5.4.9-2.5,1-3.7,1.5-4,17.4-9.7,31.1-24,45.2-37.6,16.2-15.6,34.9-26.3,56.2-33.1,10.1-3.2,19.6-8.2,29.2-12.6,1.7-.8,3.1-2.2,4-5.1-25.8,1.2-51.6,2.4-77.3,3.7-10,.5-18.7,4.3-26.7,10.1-18.1,13.1-36.7,25.3-57.5,33.8-1.4.6-2.9,1.1-5,.4,1.4-1,2.7-2.3,4.3-3,19.1-8.3,36.1-19.9,52.6-32.3,12.5-9.4,26.2-14,41.7-14.1,18.3-.2,36.5-.6,54.8-1.4,5.9-.2,11.9-1.3,17.7-2.8,9.2-2.4,16-7.9,18.8-17.4-4.6-4.1-9.4-8.1-13.9-12.4-9.1-8.8-9.2-10.6-.8-21.4-6.5,1.3-12,2.5-17.6,3.7,4.9-5.5,14.9-2.4,16.3-12.2-.9-.8-1.3-1.6-1.8-1.6-13.6.7-25.1-5-36.4-11.8-11.4-6.8-23.2-13-35-19.2-14-7.3-29.1-11.4-44.8-12.8-15.8-1.3-30.4,1.9-42.8,12.6-3.5,3-7,6.5-11.1,8.4-12.8,5.8-17,15.8-15.5,29.7,5.1-1.8,10-3.6,14.9-5.3,0-.5-.2-1-.3-1.5-3.3-.6-6.6-1.2-10-1.7-.2-.6-.3-1.3-.5-1.9,2.1-.9,4.1-2.5,6.2-2.6,11.6-1,21.5,3,30,10.9,15,13.8,32.8,22.9,52.2,28.4,24.7,7,49.3,6.1,73.4-3.5,1.5-.6,3.1-1,4.6-1.5.2,0,.6.3,1.6,1-12.6,7.3-25.7,11.2-39.8,12.3-33.5,2.7-62.7-8.8-90-27-6.3-4.2-12.6-8.4-18.2-12.1-9.9,4.5-18.5,8.3-28.5,12.8.4-5.2.6-9.6,1-13.9.4-3.9,0-8.4,1.7-11.6,2.5-4.4,6.5-8.2,10.4-11.7,4.9-4.4,10.5-8,15.6-12.3,14.8-12.4,32.1-15.1,50.6-13.4,22.5,2.1,42.1,11.8,61.1,23.1,8.6,5.1,17.1,10.3,25.7,15.4,8.1,4.8,16.7,6.1,27,4.3-.9-2.3-1.2-4.8-2.5-6-4.5-4.3-9.2-8.6-14.3-12.2-7-4.9-12.6-10.8-15.9-18.7-4.7-11-9.5-22-14.3-32.9-10-22.3-26.5-35.3-51.5-36.2-3.7-.1-7.3-.6-10.9-1-11.9-1.3-23,.4-33.9,5.7-6.1,3-13.2,4.5-20.1,5.5-13.4,2.1-27,3.3-42.2,5.2,4,2.3,6.9,4.1,9.9,5.7,11.6,5.9,22.6,12.6,32.1,21.7,7.5,7.1,15.8,13.3,26.1,16.1.9.2,1.7.9,2.6,1.4-.4.7-.8,1.4-1.2,2.1-4.4-1.6-9.2-2.6-13.2-4.9-5.7-3.3-11.5-7-16.1-11.7-9.3-9.5-20.4-15.9-32.1-21.7-5.2-2.6-10.9-4.6-14.9-9.9,3.6-4.4,8.2-3.4,12.2-3.9,14.5-1.9,29-3.5,43.5-5.7,4.5-.7,9.1-2.1,13.2-4.2,10.2-5.1,20.9-6.6,32-5.6,9.6.8,19.1,1.9,30.5,3.1-4.7-2.9-8-5.1-11.3-7-5.2-3-10.5-5.7-15.7-8.8-44.2-26.2-68.4-64.4-68.4-116.2,0-38.5-5.5-76.3-11.9-114-.5-3.2-1.5-6.4-2.5-10.9,8.4,3.6,15.4,7.4,21.7,12.5,7.2,5.9,14.4,11.8,21.8,17.6,14.4,11.3,29.7,21.1,46.5,28.8,12,5.5,23.3,13,33.8,21,31.5,24.3,58.1,52.7,74.2,89.9,8.4,19.6,11.2,40.3,13.9,61.1,1.8,13.5,3.8,27,5.6,40.5.1.9-.2,1.9-.5,3.6-4.1-3-4.1-7.1-4.7-10.7-2.8-16.7-5.6-33.5-7.8-50.3-4.7-37.5-21.6-68.9-47-96.1-15-16.1-30.5-31.7-49.4-43.4-6.8-4.2-13.4-8.9-20.7-11.9-19.6-8.2-36.5-20.5-52.7-33.9-6.2-5.1-12.2-10.3-18.4-15.3-2.7-2.2-5.8-3.9-10.4-6.8,2.4,13.5,4.2,24.9,6.4,36.3,5.7,29.9,6.8,60.1,8.1,90.4,1.8,42.4,22.5,74.4,56.9,98,9.6,6.6,20.1,11.8,30.2,17.6,19.3,10.9,33,26.6,41.1,47.2,3.7,9.3,7.9,18.3,11.7,27.6,4.5,11.1,12.3,18.7,23.3,23.9,5.6-4.2,11.5-7.4,19.2-6.3,2.6.4,5.6-1.6,6.6-1.9,3.8-10.4,6.2-19.8,10.7-28.1,5.8-10.8,12.9-20.9,20-31,2.3-3.2,3.5-5.9,3-9.9-3.6-34.2-10.1-67.8-22.3-100.1-16.6-44.1-24.8-89.6-23.8-136.9.9-38.3,8.5-75.3,18.5-112,8.8-32.5,12.1-65.3,9.6-98.8-2.4-31.9-6.1-63.6-12.4-95-4.3-21.2-14.6-39.9-23.5-59.2-3.4-7.3-10.5-12.7-13.1-21-4.1-12.9-5.8-25.9-5.6-39.3,0-7.5-1-15.1-1.5-22.8-1.8.4-2.6.4-3,.8-4.2,4.8-8,10.1-15.1,10.4-10.1.5-20.1-.2-29-5.5-8.3-5-16.3-10.5-19.3-22.7-2.2,3.8-3.5,5.9-4.7,8-3.5,6.4-8.8,10.9-15.2,13.9-8.2,3.9-13.9,2.1-19.8-5.8-2.4,4.4-4.3,8.9-7.1,12.8-10.3,14.1-30.3,15.7-42.9,3.7-8-7.7-8.5-20.7-.7-31,3.1-4.1,7.1-7.6,11.9-12.8-17.8-1.9-26.9-13.6-35.7-25.8-2.3-3.2-5.7-5.5-8.6-8.3-11.5-10.9-12.1-20.2-1.6-31.8,15-16.6,33-26.7,56.2-24.9.9,0,1.9-.3,3.7-.7v-23.1c-9.1,3.8-18.9,7.3-29.3,5.7-4.7-.7-9.8-2.3-13.6-5-7.4-5.3-6.8-10.2.5-15.7,6.1-4.5,12.2-9.2,18.1-14.1,2.5-2,4.4-4.7,6.8-7.3-6.6-2.1-12.6-3.4-18-6-8.7-4.2-13-11.8-14.1-21.5-.4-3.8-1.4-8.2-3.8-10.9-9.4-10.6-9.1-23.1-5.4-34.9,7.3-23.1,31.9-40.5,56.8-34.9,5.4,1.2,10.5,3.8,17,6.2,8.9-10.3,18.7-21.4,35.9-21.8-1.6-6.7-3-12.4-4.3-18.1l-.2.2ZM486.3,465.7c1.4-1.5,3.6-2.6,4.6-4.3s-.1-1.3-.8-1.3c-8.2,0-8.4,1.1-4.4,9.8,1.3,3,2.5,6.1,3.8,9.1.5,1.2,1.7.9,1.9-.1.8-2.9,1.5-5.7,2.5-9.5s-.4-1.3-1.1-1.1c-1.7.4-3.1.8-4.3,1.1-2.1.5-3.7-2-2.3-3.6ZM730.4,438.2c.3,0,.7-.3,1-.2.3,0,.7.6.6.7-1.1,2.4-2.2,4.8-3.4,7.1-3.5,6.8-7.4,13.4-10.6,20.3-4.3,9.4-4.8,16.1-2.4,24.9,6.1-12.2,11.6-23.1,17.2-34.1.5.2,1.1.4,1.6.6-4.2,10.7-8.4,21.4-13.2,33.5,12.2-5.8,17.9-14.7,21.1-25,3.1-9.9,3.2-20.3.9-30.5-.6-2.8-3.2-4.7-6.2-2.9-2.4,1.4-4.2,3.7-6.4,5.6-2.5,1.1-5.6,1.6-7.5,3.3-14.9,13.6-17,31.1-14.6,49.9,3.1-19.6,9.8-37.6,21.9-53.4ZM729.5,253.3c-3.5-1.6-4.3-3.8-1.8-7,3.2-4.2,6.7-8.3,9.5-12.8,5.9-9.8,10-20.5,8.7-32.1-.5-3.9-2.6-8.5-5.5-11.1-10.5-9.3-32.9-9-43.9,0-5.6,4.5-6.4,8.6-3.1,15.4.9,1.8,1.6,3.7,2.2,5.6,3.5,11.1,6.9,22.1,10.3,33.2.4,1.3.2,2.9.4,6.1-6.1-4.3-7-9.6-8.2-14.6-1.5-5.8-2.4-11.7-3.9-17.4-3.4-12.9-10.6-17.9-23.7-17.9-17.3,0-30,10-42.5,19.9-12.8,10.2-14.9,26.6-5.9,40.3,3.3,5,7.7,9.1,11.4,13.8,3.7,4.6,7.4,9.3,10.5,14.3,2.7,4.4,6.2,6.7,11.2,7.2,9.8.9,18.2-2.7,25.9-8.4,2.9-2.1,5.5-5.4,11.2-5.5-14,11.5-26.8,21.6-45.7,14.6-1.2,3.1-2.4,6-3.9,9.7,11.5.5,18.6,7.2,26.5,12.6,8,5.5,16.5,10.4,25.2,15.8,5-8.4,9.4-15.4,13.3-22.7,1.9-3.4,3.7-7,.6-11.1-5.9-8-11.4-16.2-17-24.4-4.3-6.3-4.9-11.8-1.4-16.6,1.5-2.1,3.6-4.5,5.8-5.1,2.8-.8,6.1.2,9,.4,3.9-2.8,4.2-9.7,10.9-8.9,6.3.7,7,6.2,9.1,11.7,1.8-2.1,3.2-3.7,4.6-5.3,7.3,2.6,9.6,8.4,9.9,15.6.4,8.7-2.1,16.3-8.2,22.7-2,2.1-3.8,4.5-6,7.1,2.1,1.1,3.5,2.1,5,2.6,9,2.6,15.5,7.9,21.1,15.6,3.5,4.8,9.5,8.4,15.1,10.7,12,4.8,24.7,4.8,37.3,2.3,5.9-1.1,8.9-5.4,7.1-10.8-2.4-6.9-4.9-13.8-12.1-17.6-3.1-1.7-5.7-4.3-8.4-6.5-8.7,2-16.9,2.3-25.2-4.5,6.4,0,12,1.2,16.6-.3,4.7-1.6,8.5-5.9,12.7-9,1.1-.8,2.3-1.4,3.4-2.2,4.3-3.2,9.2-5.8,12.6-9.7,11.7-13.1,15.5-38.1-8.5-47.6-6.1-2.4-11.8-6-17.4-9.5-8.7-5.3-17.8-6.8-27.7-4.8-3.5.7-4.9,2.7-5.8,5.9-4.1,15-13,27.5-21.3,40.3ZM470.2,527c-3.4,2.9-7,5.7-10.1,8.9-2.9,3-6.8,6.2-7.5,9.9-1.3,7.1-.8,14.5-.9,21.8,0,1.1,1,2.6,2,3.2,9.3,5.8,13.5,15.2,18.4,24.2,2.5,4.6,5.8,8.9,9.1,13,3,3.7,7.4,4.6,11.8,3.8,4.6-.9,4.2-5.3,4.9-8.8,3-14.1,9.1-26.2,22.8-33.2-.8-3-1.4-5.6-2.2-8.1-4.7-14.6-11-28.4-19.1-41.5-3.8-6.2-5-7.3-11.1-5.1-2.7,1-5,3-7.5,4.6-3.7,2.5-7.4,5.1-11.1,7.6,7.2-8.1,13.7-17.3,26.1-16.1.3-2.5.5-4.5.9-8.1,5.8,5.9,10.1,11,15.1,15.3,16.6,14.3,36.2,15,56.5,11.4,5.1-.9,6.3-4.6,4.8-9.1-2.4-7.1-5.1-14.2-7.5-20.8-14.6-2.4-25.8-7.8-31.6-21.3-1.4-3.2-4.7-5.5-7.1-8.3-1.1-1.2-2-2.6-2.9-3.9.6-.5,1.2-1,1.8-1.5,4.8,5.4,9.2,11.1,14.3,16.1,16.3,16.2,30,14.6,42.5-.2,2.1-2.5,3.5-5.7,4.6-8.8,3.7-10.6,3.7-21.7,2.2-32.6-1.2-8.6-5.4-15.5-15.6-16.8-8.3-1.1-15.6-4.4-22.6-9.6-15.6-11.7-31.7-1.1-35.7,11.1-3.7,11.3-7.5,22.6-11.2,33.8,8.5,1.6,9,1.9,8.9,10.7,0,4.6-.7,9.3-1.4,13.8-2.4,15.8-18.7,22.6-32.5,13.2,9-1.9,19.4,3.7,26.3-5.9,5.5-7.6,4.8-15.9,4.4-25.1s-1.9-2.6-3.3-1.6c-4,2.7-4.6,6.4-5.1,10.1-.6,5.1-1.8,9.8-6.2,13-.3.2-2.3-.2-2.1-.8.1-.5.9-.5,1.4-.8.9-3.2,1.8-6.3,2.6-9.5s-.1-.6-.4-.6-.4,0-.7,0c-.5,0-.9.3-.9.7-.2,3.2-.5,6.4-.7,9.5-3.5-.6-7-1.7-10.6-1.7-9.5,0-9.5.2-12.1-8.8-.7-2.5-.7-5.6-3.6-6.4s-2.1.4-2.3,1.4c-2.4,10.6,4,18.3,9.2,26.7-2.2-.2-4.2-.6-5.3-1.8-5.7-6.9-9.1-14.7-8.3-23.9.3-3,.3-6.3,4.1-7,4-.7,6.2,1.9,7.4,5.3,1.1,3.1,1.5,6.5,2.6,9.6,1.1,3,3.5,3.9,6.4,2.2,2.7-1.7,2.1-4,.5-6-9.8-11.8-12.6-26.1-15-40.6-.8-4.9-2.3-9.7-4-14.4-2.3-6.3-6.9-10-13.4-12.4-17.7-6.7-40.6,6.1-48.3,18-2.8,4.3-5.8,8.6-5.8,14.3,30.9-5,57.5.9,64.4,15.1-6.1-2.9-11.3-5.5-16.7-8-14.3-6.6-28.9-6.7-43.8-2.3-4.6,1.4-6.7,4-5.7,8.8.5,2.6.5,5.8,2,7.6,5.8,6.7,7.1,14.6,8.7,22.9,2.8,14.1,14.9,20.8,28.7,16.9,4.8-1.4,9.6-2.8,14.5-3.7,5.2-.9,10.4-.5,15.3,3.5-7.5.5-14.3.6-20.9,1.5-2.3.3-5.4,2-6.3,3.9-5.7,12.5-15.7,20.3-27.2,26.8-2.2,1.2-4.1,3-6,4.5,5,8.9,12.1,12.6,22.9,10.1,8.3-1.9,16.3-5.4,24.1-8.9,6.9-3.1,13.3-7.4,19.9-11.1ZM689.5,1455.7c-.3-.6-.7-1.3-1-1.9,1.6-1.1,3-2.6,4.8-3.2,9.7-3.3,19.3-7.4,29.3-9.4,23-4.5,46.4-2.8,69.6-1.4,16.5,1,32.6-1.3,47.7-8.2,21.9-10,41.7-23.3,59.2-40,30.5-29.1,52-64.6,71.9-101.2,1.7-3,2.7-6.4,4.2-10.1-1.6.3-2.2.3-2.7.5-31.9,16.7-66.2,26.1-101.2,32.2-24.2,4.2-48.8,5.6-73.3,8-49.7,4.7-93.8,23.2-133,53.9-4.2,3.3-6.2,6.6-5.9,12.5,1,22.9,1.8,45.9-3.5,68.6-2.2,9.5-4.3,19.1-7,31,16.1-14.9,32.9-23.8,51.4-30.1,18.1-6.2,36.4-11.2,55.5-13.1-22.6.1-44.8,2.5-65.9,11.9ZM500.4,626c3.9.8,8.9,1.3,13.5,3,5.6,2.1,10.8,5.1,16,7.9,7.9,4.2,15.5,9,23.6,12.8,11.7,5.4,19.6,1.6,22.2-10.9,3.2-14.9-1.8-27.8-13-37.6-9.2-8-19.4-15.1-29.6-21.9-9.3-6.2-15.6-4.8-22.1,4.4-4.9,6.8-8.3,14.4-9.4,22.8-1.6,12.8-11.2,12.9-19,9-2.8-1.4-5.3-4.1-7-6.8-5.1-8.5-9.9-17.2-14.5-26.1-4.3-8.4-11.1-11.8-20.3-11.4-21.7.9-38.4,11.6-52.5,27.1-3.2,3.5-3.9,7.9-2.2,12.1,1.6,3.9,3.8,7.7,6.5,11,4.6,5.6,10.7,10.2,14.7,16.3,6.1,9.3,14.8,12.8,24.8,14.9,7,1.4,13.1.1,18.4-4.9,3.4-3.2,6.8-6.3,10.4-9.3,4.5-3.7,9.5-6.4,15.5-3.3,1.6-13.1,4.8-16.5,13.3-13.1s2,1.6,2.1,2.9c.2,2.2.4,4.8.7,8.6,3.1-3,5.1-5,7.7-7.6ZM773.5,342.7c-1.3,1.9-2.5,4.4-2.9,4.2-6.3-2-7.7,3.1-10.4,6.6-2.4,3.2-4.9,6.3-7.8,9-4.4,4.2-5.2,8.8-3.6,14.5,4.5,16.8,17.8,24.1,32.3,30,4.7,1.9,10.1,2,15.2,3,.4-.6.7-1.3,1.1-1.9-4.5-5.2-9-10.5-13.5-15.7,9.1,2.1,13,10.3,20.4,16.7-.4-3.6-.3-5.6-.9-7.4-4.4-12.9-8.5-25.9-13.5-38.6-3.2-7.9-6.8-16-16.1-20.5ZM629.1,462.5c3.3,5.1,6.1,9.9,9.3,14.5,3,4.4,5.8,9,9.4,12.8,3.5,3.9,7.9,7,11.9,10.4-6.5.2-11.4-2.4-15.3-6.5-4-4.2-7.5-8.9-11.7-13.9-1.7,6.7-3.2,12.4-4.8,18.3,3,1.8,5.5,4.4,8.1,4.6,11.5,1,21.9,5.3,32.2,9.8,4.8,2.1,7.7.9,9.2-4.3,1.3-4.7,2.6-10,1.6-14.6-2.3-10.7-5.5-21.2-9.4-31.4-1.9-5-5.7-9.9-9.8-13.5-7.5-6.6-16.2-4.8-21.9,3.3-2.5,3.5-5.5,6.5-8.7,10.3ZM507.6,633.1c2.3,7.2,4.2,13.1,5.9,19,1.5,5.1,2.5,10.3,4,15.4,5.6,18.8,23.4,25.9,40.6,25.5,3,0,6.4-1.8,9-3.7,9.5-7,11-22.8,3.2-32.8-10.4,4-19.9,2-29-4.5-6.2-4.4-12.9-8.1-19.6-11.9-4.5-2.5-9.3-4.6-14.1-6.9ZM466.1,640.6c-3,2.5-4.5,3.3-5.4,4.6-6.4,8.3-14.6,14.1-23.8,19.1-4.7,2.5-8.8,7.2-11.9,11.8-4,6.1-5.1,13.3-.3,19.6,6.4,8.3,15.5,9.5,25.2,8,8.2-1.2,13.6-5.2,16.6-13.5,3-8.5,7.6-16.5,11.7-25.3-6.4-5.2-13.3-11.6-12-24.3ZM709.2,409.7c11.8,0,20-6,27.2-13.5,4.8-4.9,7.2-10.6,4.5-18-3.1-8.8-.5-16.3,7.8-21.4,2.3-1.4,4.1-3.5,7.9-6.9-6.5-1.7-10.9-4.3-14.7-3.5-7.4,1.4-14.5,4.5-21.6,7.2-6.9,2.7-11.5,8.2-13.8,14.8-4.8,13.6-4.4,27.3,2.7,41.3ZM603.7,567.8c-2.9,2.8-5.3,5.1-7.7,7.3-9.1,8.4-12.6,18.9-9.2,30.7,2.7,9.6,6.8,18.7,10.6,28.7,19.4-29.6,20.9-33.9,6.3-66.8ZM847.5,271.7c-6.1,7.2-10.2,13.1-7.5,19.8,3,7.5,10.4,9.7,18.1,10.1,1,0,2,0,3,0,3.2.5,6.6.7,9.7,1.7,8.6,2.7,10.3,2,12-7,.6-3.2.8-6.6.7-9.9-.3-12.4-7.2-19.6-19.7-20.7-4.5-.4-8.9-.3-11.2,4.4-2.4,4.9-2.1,9.7,1.3,14,1.5,1.9,3.3,3.5,6.1,6.6-10.5-2.7-12.6-9.2-12.6-19.2ZM625.6,1473.7c-1.6,1-5.4,2.6-8,5.3-4,4.1-7.5,7.8-13.9,8.4-5.6.5-7,5.5-2.8,9.4,5,4.7,10.7,8.9,16.5,12.7,1.9,1.2,5.9,1.8,7.2.7,7.5-6.6,15-13.6,15.2-24.6.2-7.2-4.9-11.9-14.2-11.9ZM621.9,458.1c-12.9,10.9-20.2,24.3-22.5,40.3-1.1,7.5.9,14.3,6.9,20.1,8.4-6.1,15.5-12.6,19.2-22.4,5-13,3.4-25.2-3.7-38ZM594.4,1452.4c9.2,6.8,10.8,14.6,7.1,23.6-.2.6,0,1.3,0,2,.5,3.9,3.2,5.1,6.4,4.2,2.1-.6,4.3-2.2,5.5-4,4.1-5.8,9.1-9.6,16.5-9.3,1.5-7.2,2.9-13.7-.3-20.1-1.5-3.2-4.2-6.5-7.5-5.1-5.7,2.4-11.5,2.1-17.2,2.9-3.2.4-6,3.2-10.5,5.7ZM699.6,259.2c-8.1,6.7-8.5,13.5-1.6,21.5,4.1,4.7,8.5,9,10.6,15.3,1.6,4.8,7.6,6.1,11.6,3.6,10.5-6.7,17.9-25.9,14.5-37.8-.3-1-1.7-1.6-4-3.6-1.9,4.8-3.7,8.5-4.8,12.5-1.7,6-5.5,9.1-11.8,9.8,5.8-3.1,9-7.6,9-15.6-6.2,7.6-12.3,6.4-19.9.2,1.1,6.3,1.8,10.4,2.7,15.5-8.5-5.6-3.3-14.1-6.5-21.2ZM505.1,518.8c7.4,16.9,17.1,32.5,19.6,49.1,10.3,6,19.4,11.2,28.7,16.6-1.1-11.1-2-22.9-11.2-30-13.8-10.5-26.9-21.3-37.1-35.7ZM502.6,637.2c-.3,5.3-.1,8.7-.7,11.9-1.5,8.2-5,16.1-13.9,17.5-7.9,1.3-11.2,6-14.2,11.9,5.4,10.6,9.1,12.7,18.5,8.9,4.3-1.7,8.5-5.2,11.4-9,8.4-11.1,5.2-23.9,3.5-36.2-.2-1.3-2-2.3-4.5-4.9ZM942.6,301.7c5.9,1.3,8.3,0,11.6-7.3,3.2-6.8,2-14.9-3.2-18-6.5-3.9-13.4-7.2-20.2-10.5-1.2-.6-3.1.1-5.1.3,3.3,6.9,6.2,13.4,9.5,19.8,1.3,2.6,3.6,4.8,4.9,7.5,1.1,2.2,1.4,4.7,2.5,8.3ZM652.7,1422.9c-11.4,2.5-21.3,5.8-26.7,15.3,3.8,5.8,6.9,10.3,9.9,14.9,12.5-3,18.1-13.1,16.8-30.2ZM653.3,1388.7c-.7-.2-1.4-.4-2.1-.6-9.1,10.7-14.1,23.7-21.1,38.1,9.4-3.3,16.3-5.7,23.2-8.1v-29.5ZM715.7,324.6c13.1,1.4,25.2,2.6,37.2,3.9-5-6.2-10.1-12.8-15.4-19.4-7.9,5.2-15.8,8.6-21.8,15.6ZM527.5,533.6c-.4.6-.8,1.3-1.2,1.9,4.4,3.2,8.9,6.3,13.1,9.7,4.1,3.4,7.8,7.2,11.7,10.8.6-.3,1.1-.6,1.7-.8-.9-6.3-1.8-12.6-2.6-18.6-8.4-1.1-15.5-2-22.6-3ZM470.6,641.6c-1.4,9.3,2.2,16.1,10.4,19.7,5.4,2.4,6.9,1.9,11.7-4q-9,1-13.4-7.4c-2-3.8-3.6-7.9-8.7-8.3ZM641.5,440.5c-6.8-2.5-13.2-4.3-19.1-7-6.1-2.8-11.8-6.4-17.6-9.6,3.9,5.5,8.3,10.3,13.6,13.7,5.4,3.4,11.6,5.5,17.5,8.2,2-1.9,3.6-3.4,5.6-5.3ZM714.8,303.1c-2.5,6.2-4.4,11-7.2,18.2,8.3-6,14.7-10.6,21-15.2-.1-.6-.3-1.3-.4-1.9-4.4-.4-8.8-.8-13.4-1.2ZM481.2,646.2c1,2.3,1.9,4.7,4.2,6.2s3.7.4,4.6-1.3c1.9-3.9,3.7-7.7,5.7-11.6s-.7-2.9-2.2-2.3c-3.4,1.5-6.8,2.9-10.4,4.5s-2.6,2.8-1.8,4.6ZM640,1457.5c-3.9-1.1-5,1.1-6,4.3-2.9,8.6,4.6,10.7,8.8,15.6-1-7.2-1.8-13.5-2.7-19.9ZM713.4,252c-6.2,6.6-5.8,9.6,1.5,14.9s1.1.3,1.5-.1c6.5-6.4,6.7-10.5.6-15.1s-2.6-.7-3.5.3ZM1033.8,275.5c4.3,1.8,7.2,4,9.7,3.7,4.1-.5,8.2-2.5,8-8.8-6-2.3-10.7.2-17.7,5.1ZM594.3,415.7c-1.9,1.7-3.6,3.2-5.3,4.7s-1.5,3.7,0,5,0,0,0,0c.6.5,1.4.5,2.1,0,2.5-1.9,4.8-3.6,7.1-5.3s1.5-3,.4-4.3h0c-1.1-1.2-2.9-1.3-4.1-.2ZM481.4,637.1c6.6-2.1,6.9-2.8,5-12.9-4.6,3-4.7,7.5-5,12.9ZM644.8,1462l2.9.5c-1.2-4.2,3-7.7-1.2-12.3-.6,3.9-1.1,7.8-1.7,11.8ZM840.9,259.3c.8,3.7,1.4,6.2,2.2,9.7,6.3-5.3,3.9-7.2-2.2-9.7ZM629.1,453c3.5-1.7,4.3-3.7,1.8-5.6-1.6-1.2-3.9-1.3-6.5-2.2,1.9,3.1,3.2,5.3,4.7,7.8ZM764.5,340.2c-2.7-1-4.3-1.5-6.4-2.3v9.2c2.9-3.1,4.3-4.7,6.4-7ZM851.7,465.4c-.5-1-1-1.9-1.5-2.9-2.2,1.1-4.3,2.2-6.5,3.3.4.8.8,1.6,1.2,2.4,2.3-1,4.5-1.9,6.8-2.9ZM495.8,649.6l1.7.8c.7-2.3,1.4-4.5,2.1-6.8-.4-.1-.8-.3-1.2-.4-.8,2.1-1.7,4.3-2.5,6.4ZM919.2,259.9c0,.3,0,.7-.1,1,1.1.2,2.2.7,3.3.7,1.8,0,3.6-.3,5.5-.4,0-.4,0-.8,0-1.3h-8.6Z"/>
      <path d="M720.8,1549c5.7,1,11.5,1.6,17.2,3,10.3,2.5,20.6,5.3,30.8,8.4,25.9,7.8,52.4,8.8,79.1,7.8,7.3-.3,14.6-.9,21.9-1.7,15.4-1.6,30-6.2,43.6-13.5,22.8-12.3,45.7-24.6,67.8-38.2,11.2-6.9,20.8-16.5,31.2-24.9,9.9-8,20.1-15.7,33.7-15.6,4.8,0,9.7.8,14.5,1.3,0,.7,0,1.4.1,2.1-1.9.4-3.9,1.4-5.8,1.1-15.3-2.2-27,5.1-38,14.3-2.6,2.1-5,4.4-7.5,6.6-32.8,29.2-71.6,48.2-111.3,65.4-22.7,9.8-47.3,10.4-71.6,10.2-21.4-.2-42.4-2.9-62.9-9.7-12.3-4.1-24.9-7.4-37.3-11.1-2.1-.6-4-1.8-6.1-2.7.2-1,.4-1.9.5-2.9Z"/>
      <path d="M457.4,1185.6c1.1,1.5,2.4,2.9,3.2,4.5,8,16.2,20,28.9,34.3,39.6,22.6,16.8,42.4,36.5,59.3,58.9,20.3,27,33.5,57.2,37.9,91,2.4,18.7,7.2,29.2,20.1,45.1-3.3,1.6-5-.7-6.5-2.5-8.2-9.5-14-20.2-16-32.7-1.2-7.2-1.5-14.6-3.2-21.7-6.7-28.9-18.2-55.5-37.4-78.5-17.6-21-36.5-40.5-58.1-57.5-14.1-11-25.5-24.3-33.1-40.7-.8-1.6-1.2-3.4-1.8-5.1.4-.2.8-.4,1.3-.6Z"/>
      <path d="M493.9,365.5c-13-11.6-13.7-34.1,0-44.5,14.8-11.4,30.9-20.8,50.9-19.2,3.3.3,6.6.1,10,0,5.5-.3,10.7-2.1,13.9-6.7,4.3-6.2,10.6-7.8,17.3-8.2,14.5-.9,24.4,7.1,32.8,17.8-5.9-3.3-11.7-7-17.9-9.8-11-5-21.7-5.6-31.2,3.9-4.1,4.1-9.5,5.7-15.4,5.9-7.6.2-15.5-.2-22.8,1.5-12.7,3-24.4,9-33.8,18.3-9.4,9.3-11.2,20.7-7,33.1,1,2.8,2,5.5,3,8.2,0,0,.2-.2.2-.2Z"/>
      <path d="M569.6,1487c-3.2-.3-6.5-.4-9.7-1.1-17.9-3.7-35.4-8.6-52-16.4-5.7-2.7-11.5-5.1-17.3-7.7-13.8-6.3-28-10.4-43.4-6.6-1.5.4-3.2.3-7,.5,3-2.5,4.1-4.1,5.6-4.5,12.8-3.6,25.3-3.9,37.9,1.8,19,8.6,38.2,16.9,57.6,24.6,9.1,3.6,19,5.4,28.5,8,0,.4,0,.9,0,1.3Z"/>
      <path d="M669.8,1503.2c6.5-8.9,16.2-13.5,25.6-18.2,16.2-8.1,33.8-12.2,51.5-15.3,21.8-3.8,43.7-3.6,65.4,1.5,4.4,1,8.6,2.7,12.4,5.8-8.4-1.6-16.7-3.7-25.1-4.6-44.5-5-86,3-123.8,28-1.8,1.2-4.1,1.7-6.1,2.6l.2.2Z"/>
      <path d="M591.7,361.6c.5-3.1-.9-4.6-3.9-3.8-3.5.9-6.2,2.9-5.4,7,.5,2.6,1.8,5,2.8,7.4.8,2,1.5,4,2.5,6.7-6.2-.3-6.1-5.7-10.8-9.4,1.9,5.5,3.1,9.3,4.4,13q-4.5-2-9-14.8c-6.9,6.2-6.3,13.8,3.2,29.9-6-3.7-9-7.6-9.7-13-.5-3.9-.6-8-.2-11.9.7-7.8,3.1-9.1,11.4-6.8.2-1.3.2-2.7.7-3.8,2.2-5.3,8.2-9.1,12.4-8,4.9,1.3,8.5,7.9,7.3,13.8-.3,1.6-1.2,3.1-1.7,4.6-1.9,5.2-3.7,10.4-6.2,17.3-2.4-6,0-9.9,1.7-13.8,2.1-4.9,5-9.7.2-14.7l.2.2Z"/>
      <path d="M564.3,351.3c-1.3,1.9-2.2,4.5-3.9,5.6-3.6,2.3-7.4,4.5-11.5,5.6-9.1,2.4-16,7.5-21.1,15.3-.8,1.3-2,2.3-3,3.4-.5-.4-1.1-.8-1.6-1.2,3.3-4.6,6.5-9.2,10.8-15.2-8,1.8-14.6,3.2-21.2,4.7-.2-.3-.4-.6-.7-.9,1.6-1.1,3.1-2.7,4.8-3.1,7.3-2,14.7-3.9,22.1-5.4,8.5-1.7,16.8-3.6,23-10.6.7.6,1.5,1.1,2.2,1.7Z"/>
      <path d="M516.9,331.5c21.4-10.4,55.1,2.3,57.9,20-.6,0-1.6.1-1.8-.2-10.6-17-27.8-18.8-45.3-19.8-3.6-.2-7.2,0-10.8,0Z"/>
      <path d="M607.8,366.1c5.8,9.8,2.3,18.8-.7,27.7-.8,2.4-3.9,4.8-6.4,5.8-4.9,1.8-10.1,2.9-15.2,3.7-1.5.2-3.3-1.6-6.5-3.1,2.5-1,3.8-2.1,4.9-1.9,13.7,2.5,22.3-3.5,23.8-17.4.5-4.9,0-9.8,0-14.8Z"/>
      <path d="M620.8,391.1c20.1,1.4,36.2,10.3,47.7,27.1-7.4-5.6-14.4-11.9-22.4-16.5-7.9-4.5-16.8-7.2-25.3-10.6Z"/>
      <path d="M573.2,309.6c9.7,6.2,16.1,23.2,14.1,38.4-5.3-6-3.9-13.3-6.2-19.4-2.3-6.3-5.2-12.5-8-19Z"/>
      <path d="M599.5,553.4c-9.1-3.7-17.4-18.9-16-30.6,2.4,4.9,4.6,10,7.1,14.8,2.7,5.1,5.6,10,8.9,15.8Z"/>
      <path d="M559.8,1435.1c-3.5-1.7-7.1-3.1-10.4-5.1-10.4-6.3-20.6-12.8-30.6-20.1,2,.6,4.3.7,6,1.8,11.7,7.7,23.3,15.7,34.9,23.6h0Z"/>
      <path d="M587.9,496.7c3.8,10.5,7.1,19.6,10.9,30.2-9.2-7.1-14-20.6-10.9-30.2Z"/>
      <path d="M497.4,442.5c-4.1,4.6-7.1,3-9.1,0-1.9-3-3.3-6.5-4.2-10-1.1-4.4-1.3-9-2-14.4,5.4,3.1,4.9,7.8,5.5,12.1.9,5.6,1.9,11.2,9.7,12.3Z"/>
      <path d="M434.7,1386c13.6.2,26.5,3.8,39.1,9.1-13.1-2.3-26.2-4.6-39.4-7,0-.7.2-1.4.3-2.1Z"/>
      <path d="M498.5,434.9c-2.8-12.3-1.3-17.1,6.4-23.4-2.3,8.3-4.4,15.8-6.4,23.4Z"/>
      <path d="M598,310.3c.7,9.7,1.5,19.3,2.2,29-.8,0-1.7.1-2.5.2-1.6-9.5-1.6-19.1-2.1-28.7.8-.2,1.6-.3,2.4-.5Z"/>
      <path d="M553.4,382.1c-4.3,9.9-12.7,14.9-22.7,17.8,4-2.7,8.1-5.3,11.9-8.2,3.8-2.9,7.2-6.3,10.8-9.5Z"/>
      <path d="M602.7,371.2c.8,12.7-1.1,16.9-9.1,20.7,3-6.9,5.7-13.1,9.1-20.7Z"/>
      <path d="M559.7,1435.2c3.9,2.2,7.9,4.4,11.8,6.6-.5.7-1.1,1.5-1.6,2.2-3.4-3-6.7-6-10.1-9,0,0,0,.1,0,.1Z"/>
      <path d="M591.4,361.3v8.2c-5.3-5.4-5.3-5.9.2-8,0,0-.2-.2-.2-.2Z"/>
      <path d="M496.8,1400.8c2,.6,4,1.3,6.1,1.9-.1.5-.2.9-.4,1.4-2.2-.5-4.4-1.1-6.6-1.6.3-.6.6-1.2.9-1.7Z"/>
      <path d="M669.6,1503c-1.8,2.1-3.6,4.2-5.4,6.3l-1.6-1.9c2.4-1.4,4.8-2.8,7.2-4.2,0,0-.2-.2-.2-.2Z"/>
      <path class="cls-1" d="M680.1,1430.8c.9-.4,1.7-.4,2.1-.9,25.4-29.4,57.7-46.3,95.6-53.2,20.6-3.7,41.3-7.2,61.6-11.8,25.4-5.8,49.8-14.3,71.9-28.5,2.8-1.8,5.3-3.9,7.9-5.9-.4-.5-.8-1.1-1.2-1.6-2.2,1.2-4.4,2.4-6.7,3.5-13.9,6.4-27.5,13.4-41.7,18.9-24.9,9.7-51.1,14.2-77.5,18-18.4,2.7-36.7,6.2-53.9,13.8-20.6,9.1-39.2,21-54,38.4-2.2,2.6-5.5,4.9-4.2,9.4Z"/>
      <path class="cls-1" d="M1033.8,275.5c7-4.9,11.7-7.4,17.7-5.1.2,6.2-3.9,8.2-8,8.8-2.5.3-5.3-1.9-9.7-3.7Z"/>
      <path class="cls-1" d="M840.9,259.3c6,2.5,8.5,4.4,2.2,9.7-.8-3.5-1.3-6-2.2-9.7Z"/>
      <path class="cls-1" d="M758.1,338c2.1.7,3.7,1.3,6.4,2.3-2.1,2.3-3.5,3.8-6.4,7"/>
      <path class="cls-1" d="M919.2,259.9h8.6c0,.4,0,.8,0,1.3-1.8.2-3.6.4-5.5.4-1.1,0-2.2-.5-3.3-.7,0-.3,0-.7.1-1Z"/>
      <path d="M680.1,1430.8c-1.4-4.4,1.9-6.8,4.2-9.4,14.8-17.3,33.4-29.2,54-38.4,17.2-7.6,35.5-11.2,53.9-13.8,26.4-3.8,52.6-8.4,77.5-18,14.2-5.5,27.8-12.5,41.7-18.9,2.3-1.1,4.5-2.3,6.7-3.5.4.5.8,1.1,1.2,1.6-2.6,2-5.1,4.2-7.9,5.9-22.1,14.3-46.6,22.7-71.9,28.5-20.4,4.6-41.1,8-61.6,11.8-37.9,6.9-70.2,23.8-95.6,53.2-.4.4-1.2.5-2.1.9Z"/>
      <path d="M466.1,451.2c-6.1-5.9-11.3-12.4-17.8-16.9-6.5-4.5-14.4-7-22.1-10.5,13.4-4.2,36.9,12,39.9,27.5Z"/>
      <path d="M411.9,471.4c15.8-7.6,31.9-14.3,50.3-11.3-8.4,1.5-17.1,2.4-25.3,4.7-8.4,2.3-16.4,6-24.5,9.1l-.5-2.5Z"/>
      <path d="M513.5,456.1c11.6-8.3,23.5-16,37.7-19.1,3.5-.8,7-1.2,10.8-.7-16.6,5.4-33.4,9.9-46.1,23.9-1-2.2-1.6-3.3-2.1-4.4l-.3.3Z"/>
      <path d="M513.8,455.8c-1.1-.6-2.2-1.3-4.2-2.4,7.7-13.1,16.8-23.9,32.2-27.5-11.4,8.3-23.3,15.9-28.2,30.2,0,0,.3-.3.3-.3Z"/>
      <path d="M572.1,466.8c-12.1,3.5-31.4,2.1-42.5-3,14.6,1,27.6,1.9,42.5,3Z"/>
      <path d="M540.9,454.5c-6.6,2.3-13.2,4.6-21.1,7.3,6.4-6.1,9.9-7.5,21.1-7.3Z"/>
      <path d="M444.4,454.8c-6-.6-11.9-1.2-17.9-1.8,0-.3,0-.7,0-1h17.9c0,.9,0,1.9-.1,2.8Z"/>
      <path d="M551.8,450c4.6-.2,9.3-.5,13.9-.7,0,.6,0,1.1.1,1.7-4.7.5-9.3,1-14,1.5,0-.8,0-1.7,0-2.5Z"/>
      <path d="M626.3,243.3c16.8,5.6,32,9.4,48.9,5.7-7.9,9.4-37.4,6-48.9-5.7Z"/>
      <path d="M681.4,267.5c-1,9.3-11.7,18.2-22.9,19.2,7.4-6.2,15.3-12.9,22.9-19.2Z"/>
      <path d="M687.1,225c-10.6-4.6-21.1-9.1-31.7-13.7,12.8-.2,22.6,6.4,32.9,12-.4.6-.8,1.1-1.2,1.7Z"/>
      <path d="M666.5,265.4c-7.1,6.8-15.6,8-24.8,6.1,8.3-2,16.5-4.1,24.8-6.1Z"/>
      <path d="M680.8,235.8c-9.6-.8-19.3-1.7-28.9-2.5,9.8-1.1,19.7-3.4,29.3-.3-.1.9-.2,1.9-.4,2.8Z"/>
      <path d="M409.2,589.2c14.3-4.5,28.6-6,42.4.4,9.1,4.2,13.7,12.7,12.2,22.8-1.3-2.8-2.7-5.6-4-8.4-4.2-8.9-11.5-13.8-21.1-14.5-7.9-.6-15.8-.2-23.8-.3-1.9,0-3.8,0-5.8,0Z"/>
      <path d="M506.5,623.4c1.7-5.8,5.5-6.3,9-6.2,8.5.4,17.2.6,25.6,2.1,11.1,2.1,21.7,6.2,31.7,11.9-21.8-4.1-42.1-17.1-66.2-7.9Z"/>
      <path d="M466.2,621.4c-17,10-35.2,10.6-53.7,7.4-4.1-.7-8.5-2.2-9.3-7.6,14,8.9,29.2,7,44.3,4.8,6.3-.9,12.5-3.1,18.8-4.6Z"/>
      <path d="M554.1,601.3c-16.5-1.3-31.9,2.4-46.6,9.6,7.7-11,30.1-15.5,46.6-9.6Z"/>
      <path d="M414.2,606.6c-4.9,1.3-9.7,2.7-15,4.1,3.9-5.7,4.4-5.9,15-4.1Z"/>
      <path d="M443.1,608c-6.5-1-13.1-2.1-19.6-3.1,7.1-2.4,13.8-2.5,19.6,3.1Z"/>
      <path d="M759.9,256.1c19.2-1,36.3-4.7,53.2-13.6-9.9,12.5-41.5,20.9-53.2,13.6Z"/>
      <path d="M789.2,266.4c8.8-4.2,16-7.7,23.7-11.4-4,8.4-13.3,13.4-23.7,11.4Z"/>
      <path d="M763.9,232.7c-5.2,4.7-10.4,9.3-17.3,15.5,3.5-9.6,8.5-14.5,15.8-17.2.5.6,1,1.2,1.5,1.7Z"/>
      <path d="M779.8,267.5c-12,2-18.4.9-24.8-3.9,8.3,1.3,16.5,2.6,24.8,3.9Z"/>
      <path d="M763.1,246.4c5.2-2.3,10.4-4.5,15.5-6.8-3.4,4.9-4.6,5.5-14.7,8.6-.3-.6-.6-1.3-.9-1.9Z"/>
      <path d="M780,223.3c-3.8,2-7.5,4-13.3,7.1,3.1-7.6,8-7.7,12.2-8.9.4.6.7,1.2,1.1,1.8Z"/>
      <path d="M799.2,237.8c-1.1.5-2.1,1.4-3.2,1.6-1.5.2-3.1-.1-4.9-1.7,2.5-.8,4.9-1.5,7.4-2.3.2.8.5,1.7.7,2.5Z"/>
      <path d="M483.5,530.2c-7.7,24.6-3.2,48.5,4.3,73-15.1-8.7-17.8-54.8-4.3-73Z"/>
      <path d="M496.4,586.7c-2-18.6,3.7-37.6-5.1-57.4,7.4,6.2,8.2,8.6,10,29.1,1.1,11.5-.4,21.9-4.9,28.3Z"/>
      <path d="M465.6,566.7c-7.9-7.7-6.7-18.4,2.5-27.9-1,5.7-2.1,10-2.4,14.3-.4,4.5,0,9.1,0,13.6Z"/>
      <path d="M510.4,556.9c3.5,5.2,4,10.3,0,15.3v-15.3Z"/>
      <path d="M792.7,388.1c-6.7-9.7-13.5-19.5-21.2-30.6,9.1,3.2,17.8,15,22.9,29.4-.6.4-1.2.8-1.7,1.2Z"/>
      <path d="M649.6,454.5c10.3,13.2,20.9,26.2,22,44.3-3.8-7.5-7.3-15-11.4-22.3-3.9-7-8.4-13.8-12.6-20.7.7-.4,1.3-.8,2-1.3Z"/>
      <path d="M647.2,469c7.4,4.2,12.3,10.2,13.3,18.9-4.4-6.3-8.9-12.6-13.3-18.9Z"/>
      <path d="M517.7,647.2c11.7,10.3,23.5,20.7,35.2,31-8.2-2.2-32.2-22.4-36.7-29.4.5-.5,1-1.1,1.5-1.6Z"/>
      <path d="M463.3,661.1c-6.7,8-13.4,15.9-20.4,24.2,1.6-7.8,8.2-16.3,20.4-24.2Z"/>
      <path d="M731.3,362.2c-5.3,10.4-12.9,19.5-14.6,31.6,3.4-5.8,6.8-11.6,10.1-17.4,2,4.6-1.3,7.2-2.5,10.4-1.5,4-3,8.1-5.1,11.8-1.7,3-4.5,5.4-7.7,7.5-.7-18,7.9-31.7,19.8-43.9Z"/>
      <path d="M860.6,273.9c10.8,2.9,17.3,13.8,15.7,27.6-2.1-6.2-3.1-11.5-5.6-15.9-2.5-4.3-6.5-7.7-10-11.8Z"/>
      <path d="M610.6,511.8c-5.1-3.9-5-7.6-4.4-11,2.2-12.5,4.7-24.9,13.2-35.1-6.4,14.1-10.5,28.7-8.8,46.1Z"/>
      <path d="M710.5,283.8c4.7,2,6.1,4.6,4.9,8.8s-.9,1-1.5.7c-3-1.6-3.9-4.4-4.9-8.2s.7-1.6,1.5-1.3Z"/>
      <path d="M719.7,294.6c-3.1-4.2-1.4-6.4.8-8.4s1.3,0,1.3.7c-.2,2.1-.4,4.4-.7,7.3s-1,1-1.4.4Z"/>
      <path d="M713.4,260.7c.2-1.4.4-2.7.6-4s.6-1,1.2-1c2.5.2,2.4,1.5-1,5.4s-.9,0-.8-.4Z"/>
    </g>
  </g>
</svg>