<svg viewBox="0 0 360.773 359.978" height="100mm" width="100mm" xmlns="http://www.w3.org/2000/svg"><path d="M189.629 6.418c-.706.758-1.284 1.712-1.284 2.119 0 .407-1.29.917-2.867 1.133-2.695.37-7.431 2.622-9.876 4.696-1.637 1.388-2.003 4.585-.843 7.361.552 1.322.93 2.476.839 2.566-.092.089-.93.016-1.863-.163-1.262-.243-1.746-.754-1.89-1.992-.177-1.532-.396-1.649-2.712-1.462-1.386.112-3.453.646-4.594 1.187-1.612.764-3.136.887-6.843.551-2.624-.238-8.718-.096-13.543.315-8.053.687-8.943.657-10.844-.367-1.974-1.063-2.15-1.063-3.753-.013-1.889 1.238-2.177 2.523-.692 3.093.545.209 5.009-.043 9.921-.561 10.875-1.147 10.171-1.15 8.975.046-1.129 1.129-1.301 4.179-.337 5.98.651 1.217 2.849 1.611 4.108.737 1.475-1.024 2.799-3.693 2.799-5.643 0-1.967.111-2.064 2.362-2.056 1.299.005 2.966.171 3.704.369 1.212.325 1.278.567.683 2.505-.791 2.577.189 5.312 1.898 5.297 1.299-.01 7.678-1.967 8.833-2.709.433-.278.787-1.197.787-2.043 0-1.854.724-1.896 4.35-.251l2.775 1.259-1.279 1.404c-2.722 2.99-3.527 6.306-1.7 7.007 3.131 1.201 10.291-.221 13.85-2.75l2.563-1.822 1.847 1.564c1.557 1.318 1.633 1.505.487 1.193-1.738-.474-6.884.809-7.833 1.952-.399.481-1.344.875-2.1.875-1.39 0-4.328 2.724-6.19 5.739-1.202 1.948-2.797 9.152-2.165 9.784.764.764 6.58.337 8.428-.619.975-.504 2.302-1.502 2.949-2.216l1.176-1.299 2.025 1.544c1.113.85 2.903 1.72 3.977 1.935 1.85.37 1.976.269 2.388-1.924.63-3.36-.023-7.753-1.379-9.282-.647-.729-2.428-1.885-3.957-2.569-2.296-1.027-2.597-1.345-1.727-1.832.579-.324 2.393-.503 4.031-.398 2.47.159 2.988.407 3.036 1.452.139 2.977.361 3.492 1.953 4.535.922.604 2.923 1.249 4.446 1.432l2.768.332-2.556 3.421c-1.946 2.603-2.557 3.996-2.557 5.827 0 2.877 1.748 4.925 4.205 4.925h1.684l-1.339 1.425c-1.732 1.844-3.676 6.347-4.238 9.817-.593 3.665-1.249 2.805-3.277-4.296-1.324-4.64-2.163-6.389-3.983-8.302-4.009-4.214-6.309-2.829-5.004 3.015 1.301 5.825 4.255 9.553 10.902 13.759 2.021 1.279 3.578 2.421 3.461 2.539-.117.117-3.881-.781-8.364-1.995-13.184-3.57-16.423-5.78-20.228-13.799-2.317-4.881-4.707-7.202-7.417-7.202-1.887 0-2.83 2.075-1.611 3.544.44.53 2.154 1.65 3.809 2.488 2.576 1.306 4.314 3.04 4.314 4.304 0 .702-4.159-.433-5.801-1.582-1.934-1.354-2.763-1.487-3.35-.538-.786 1.272 1.068 2.39 5.652 3.41 3.885.864 5.122 1.479 7.686 3.822 2.855 2.607 2.952 2.793 1.464 2.806-.876.007-3.678-.986-6.226-2.207l-4.635-2.221.354 2.634c.236 1.76.968 3.249 2.204 4.486 2.522 2.522 5.46 2.575 8.943.162 2.467-1.71 2.775-1.772 5.251-1.059 1.447.416 5.636 1.569 9.308 2.563 11.349 3.07 12.289 3.799 15.582 12.089 1.026 2.583 2.496 5.765 3.267 7.071.771 1.307 1.244 2.534 1.051 2.727-.193.193-1.312.034-2.486-.354-2.183-.72-4.559-2.945-7.625-7.137-.95-1.3-2.138-2.363-2.64-2.363-1.313 0-1.216.217 1.949 4.379 3.338 4.389 5.256 5.884 8.979 6.997 3.123.934 6.008 3.895 7.847 8.052 1.647 3.724 1.22 6.692-2.689 18.682-5.064 15.532-5.352 17.226-5.297 31.181.045 11.497.177 12.837 2.06 20.926 2.365 10.158 3.277 20.056 2.529 27.433-.63 6.216-1.516 9.808-4.896 19.841-2.6 7.717-4.092 14.285-4.824 21.24l-.43 4.086-1.968-2.232c-5.15-5.84-10.52-8.036-25.164-10.286-15.452-2.374-23.481-5.44-31.632-12.08l-3.405-2.773.386 2.04c.728 3.841 3.354 12.438 4.618 15.114 1.842 3.903 5.538 8.537 9.135 11.457l3.149 2.556-7.559.012c-7.263.012-7.793.106-13.543 2.4-6.298 2.513-12.897 4.837-17.637 6.214-3.688 1.071-4.118 3.088-1.29 6.047 2.179 2.28 2.31 3.257.962 7.138l-.958 2.756 1.565-1.89c.861-1.039 1.875-2.792 2.253-3.894.492-1.436 1.194-2.117 2.476-2.398 2.217-.487 4.568.471 11.707 4.767 7.208 4.338 15.526 7.9 22.969 9.836 5.095 1.325 6.921 1.508 12.284 1.228 3.559-.186 9.15-1.036 12.854-1.956 3.606-.895 9.275-2.037 12.599-2.537 3.323-.501 7.46-1.342 9.192-1.869 4.141-1.26 3.939-1.32 4.691 1.39 1.026 3.694.834 4.438-1.87 7.252-1.486 1.547-2.804 3.685-3.187 5.173-.36 1.395-.805 3.054-.99 3.688-.184.634-2.197 3.126-4.472 5.537-2.758 2.924-3.927 4.595-3.507 5.015.42.42 2.017-.84 4.791-3.781 3.557-3.77 4.352-5.05 5.473-8.814.98-3.291 1.772-4.731 3.138-5.704 1.005-.715 2.162-2.317 2.572-3.559l.745-2.259 2.922 2.82c3.554 3.429 7.092 5.472 13.305 7.681 7.889 2.804 10.72 5.297 10.72 9.439 0 1.641.855 2.141 1.6.936.868-1.406-.447-5.041-2.57-7.103-2.287-2.221-3.745-2.959-11.992-6.065-4.3-1.62-10.916-5.958-10.192-6.682.117-.118 2.742.196 5.832.696 7.353 1.19 11.342 3.207 15.744 7.963 2.232 2.411 3.775 3.616 4.149 3.242.374-.374-.679-2.004-2.832-4.383-4.309-4.762-9.419-7.383-16.428-8.427-4.814-.717-10.129-2.356-9.543-2.943.153-.152 1.511.056 3.018.464 1.508.407 6.851.793 11.875.857 9.635.123 10.801.406 14.009 3.398 2.082 1.942 2.957 1.432 1.46-.852-2.011-3.069-5.424-4.032-14.349-4.047-7.55-.013-16.954-1.341-18.374-2.594-.308-.272 3.519-.334 8.504-.139 5.839.23 9.962.106 11.585-.347 1.385-.386 5.137-2.657 8.336-5.047 7.484-5.59 8.589-5.885 11.012-2.945 1.893 2.296 4.274 3.003 4.274 1.269 0-3.104-4.678-8.653-8.696-10.318-2.429-1.006-2.504-1.465-.424-2.578.874-.468 2.544-2.287 3.711-4.043 2.625-3.952 3.649-4.886 7.967-7.268l3.426-1.89-7.559.119c-4.158.065-10.216-.152-13.463-.483l-5.903-.6 5.735-4.28c6.227-4.645 8.391-7.53 9.898-13.192 1.058-3.971 1.15-12.071.221-19.395-.372-2.936-.876-8.739-1.12-12.897l-.443-7.559-1.095 3.597c-1.812 5.953-5.67 10.825-14.338 18.107-13.089 10.997-16.581 16.072-20.826 30.264-1.295 4.331-3.076 9.859-3.959 12.284-1.073 2.949-1.615 5.765-1.639 8.504-.03 3.437-.154 3.892-.774 2.834-.407-.695-.856-4.698-1-8.927-.33-9.67.665-15.31 5.235-29.679 1.891-5.946 3.727-12.589 4.08-14.763 1.396-8.602.443-21.582-2.427-33.068-1.791-7.168-2.799-17.706-2.296-24.025.618-7.786 1.896-13.699 5.055-23.395 3.594-11.033 4.104-13.097 4.191-16.978.069-3.058.131-3.172 1.201-2.204 1.995 1.806 5.653 1.859 8.201.12l2.251-1.537 1.722 1.481c2.139 1.84 5.039 1.936 6.251.206.87-1.242.956-1.21 3.426 1.26 1.985 1.985 3.007 2.534 4.721 2.534 4.719 0 7.179-5.281 4.214-9.049l-1.305-1.66h1.898c1.575 0 2.389-.636 4.765-3.725 4.933-6.41 5.193-9.005 1.146-11.466-1.3-.79-3.409-2.264-4.686-3.275-1.81-1.433-2.806-1.782-4.513-1.582-2.076.242-2.204.145-2.436-1.836-.199-1.712-.066-2.01.734-1.641.538.247 2.442.564 4.231.704 2.741.215 3.476.03 4.683-1.177l1.432-1.432-3.387-3.033c-3.072-2.751-3.24-3.033-1.811-3.033 2.657 0 3.699-1.336 4.674-5.993 1.233-5.894 1.161-8.073-.365-11.064-2.205-4.322-6.899-6.135-10.72-4.141-1.468.766-1.8.684-3.722-.92-1.161-.969-2.916-1.939-3.9-2.155-2.07-.455-2.251-1.694-.827-5.648.499-1.385.912-3.261.917-4.167.02-3.443-4.432-6.855-8.946-6.857-1.137 0-3.897-.865-6.133-1.923-4.839-2.29-7.415-2.127-11.339.715-3.05 2.21-3.777 2.288-3.908.422-.21-2.987.221-4.014 2.786-6.627 2.237-2.28 2.636-3.074 2.582-5.145-.082-3.111-2.02-5.859-5.622-7.969-2.266-1.329-3.422-1.595-6.152-1.42-3.044.195-3.582.022-5.694-1.831-2.07-1.817-2.752-2.048-6.065-2.048-3.029 0-3.975.26-5.018 1.379m7.034.536c1.283.357 2.895 1.362 3.581 2.235l1.248 1.586-1.565 4.157c-1.059 2.814-1.358 4.363-.925 4.796.434.433.782.25 1.079-.568 1.755-4.828 3.494-7.9 4.815-8.501 3.078-1.403 8.914 1.344 10.863 5.113 1.406 2.719 1.151 3.928-1.328 6.309-1.243 1.194-2.807 3.234-3.477 4.533-.67 1.299-1.672 2.362-2.228 2.362-.556 0-2.689-.753-4.739-1.673-2.59-1.162-3.528-1.874-3.071-2.331 1.049-1.049.769-3.555-.445-3.985-.606-.215-1.577-.798-2.158-1.296-.58-.497-1.572-.803-2.205-.68-2.042.399-5.873-5.383-5.873-8.865 0-1.234.483-2.224 1.4-2.866 1.649-1.156 1.966-1.176 5.028-.326m-7.969 5.802c.238.779 1.374 2.74 2.523 4.357 1.629 2.291 1.89 3.016 1.184 3.287-1.701.653-.887 7.318 1.049 8.596.719.474-5.65 5.083-7.926 5.736-1.042.299-3.243.543-4.891.543-3.649 0-3.857-.866-.992-4.128 1.621-1.847 2.324-2.218 3.685-1.946 1.956.391 4.389-.123 4.389-.928 0-.306-1.091-.557-2.425-.557-2.698 0-6.625-2.43-8.465-5.239-1.662-2.536-1.406-5.75.581-7.313.913-.718 1.932-1.306 2.263-1.306.332 0 1.324-.567 2.205-1.26.963-.757 2.555-1.26 3.994-1.26 1.932 0 2.476.273 2.826 1.418m15.651 1.984c-2.391 2.391-2.641 3.569-1.086 5.124.837.836 1.722.972 4.252.651 1.758-.223 4.117-.7 5.243-1.06 2.512-.804 2.78-2.135.315-1.561-3.456.805-9.606 1.175-9.606.578 0-1.373 3.805-4.194 5.656-4.194 1.166 0 1.903-.325 1.903-.84 0-.544-.798-.84-2.268-.84-1.739 0-2.767.5-4.409 2.142m-21.669-.635c0 .587.52 1.013 1.239 1.013.681 0 2.259 1.02 3.506 2.268 2.378 2.378 3.207 2.482 2.519.316-.823-2.593-7.264-5.782-7.264-3.597m-5.039 3.788c0 1.17 5.165 2.894 8.668 2.894 4.011 0 3.125-1.482-1.159-1.94-1.878-.2-4.213-.697-5.188-1.102-2.236-.93-2.321-.924-2.321.148m-.515 3.345c.305 1.58 4.173 3.959 6.434 3.956 1.075-.001 2.89-.572 4.033-1.269 2.553-1.557 2.111-2.915-.508-1.561-2.686 1.389-5.302 1.167-7.44-.632-2.201-1.852-2.803-1.97-2.519-.494m25.856 1.558c.731 2.193 6.64 4.279 7.243 2.558.152-.433-.113-.787-.588-.787s-1.976-.567-3.335-1.26c-2.833-1.445-3.674-1.574-3.32-.511m-34.386.831c.2.522-.089 1.641-.643 2.487-.724 1.105-.805 1.661-.289 1.981.786.485 2.418-1.364 2.418-2.741 0-.474.283-.686.629-.472 1.391.859.615 2.905-1.417 3.736-5.306 2.17-6.356 1.651-3.238-1.603 2.138-2.232 1.387-3.771-.834-1.708-.868.805-1.836 2.031-2.153 2.724-.441.965-.487.818-.199-.63.71-3.568 4.776-6.249 5.726-3.774m27.647 2.83a.938.938 0 0 0 .925-.945c0-.52.432-.945.961-.945.858 0 .856.203-.016 1.89-.538 1.039-1.302 1.889-1.699 1.889-1.349 0-3.026-2.079-3-3.719l.025-1.635.94 1.732c.517.953 1.356 1.733 1.864 1.733m-43.169-.57c0 1.087-2.051 4.276-2.979 4.632-.979.376-2.202-2.331-1.675-3.705.193-.503 1.106-1.03 2.03-1.171.923-.142 1.891-.3 2.151-.352.26-.052.473.216.473.596m55.411 4.349c1.398 0 2.541.283 2.541.63 0 .346-.436.63-.97.63-.533 0-2.102.577-3.486 1.283-5.244 2.676-5.337 2.675-7.15-.065-1.559-2.356-1.592-2.568-.629-4.037l1.016-1.551 3.069 1.555c1.755.889 4.157 1.555 5.609 1.555m18.253-.052 2.168 1.154-2.005 1.037c-2.111 1.092-4.361 3.915-3.67 4.606.223.224 1.183-.317 2.132-1.202 2.65-2.471 4.156-3.023 8.25-3.023 3.167 0 4.093.269 5.767 1.678 2.201 1.851 2.2 1.847.589 10.506-.778 4.18-.88 4.344-3.377 5.442-1.415.623-3.779 1.447-5.251 1.832a181.999 181.999 0 0 0-5.288 1.483c-2.283.686-2.692.655-3.265-.253-.568-.901-.829-.924-1.976-.173-2.431 1.593-13.364 4.097-15.065 3.45-3.177-1.208-2.472-5.068 1.77-9.699 1.839-2.008 2.471-2.298 5.011-2.298 3.004 0 3.99-1.012 1.49-1.529-.779-.161-3.597-.406-6.261-.545-5.465-.284-8.274-1.586-7.951-3.686.141-.911 1.748-1.992 5.673-3.817 4.454-2.07 5.891-2.467 7.698-2.128 2.568.482 5.895 3.057 6.707 5.193.86 2.264 1.851 1.749 1.851-.962 0-1.488.494-3.063 1.271-4.05.916-1.165 1.063-1.744.527-2.075-.705-.436-2.667 1.401-3.198 2.996-.161.482-.804.347-1.963-.412-2.103-1.378-1.935-2.071.867-3.574 2.696-1.445 4.717-1.432 7.499.049m-29.546 1.986c.682 1.275.661 1.281-.923.243-1.853-1.215-2.004-1.547-.698-1.547.507 0 1.237.587 1.621 1.304m31.232 3.113c-2.119.651-4.8 2.995-4.8 4.197 0 1.244.679 1.024 2.642-.857 1.479-1.417 2.508-1.75 6.334-2.047 2.554-.199 4.501-.633 4.417-.986-.194-.814-6.238-1.03-8.593-.307m-1.02 4.554c0 .504 1.139 1.43 2.53 2.057 1.416.639 3.103 2.068 3.831 3.246.715 1.157 1.703 2.104 2.194 2.104 1.153 0 1.126-.32-.195-2.336l-1.088-1.661 1.66 1.088c.913.598 1.821.826 2.018.507.574-.929-1.547-2.433-5.281-3.746-1.905-.67-3.96-1.434-4.567-1.697-.764-.332-1.102-.198-1.102.438m-39.81 2.243c2.278 2.277 2.357 2.49 1.607 4.326-1.459 3.577-6.929 6.76-9.794 5.701-.725-.268.239-.786 3.851-2.068.597-.212.683-.526.26-.95-.424-.423-1.216-.411-2.398.039-.97.369-1.891.545-2.045.39-.827-.827 4.601-9.833 5.927-9.833.109 0 1.275 1.077 2.592 2.395m3.104-2.015c-.209.21-.752.232-1.207.05-.503-.201-.353-.35.38-.381.664-.027 1.036.122.827.331m3.913 1.982a7.05 7.05 0 0 1 2.242 4.252l.371 2.52-.897-1.939c-.493-1.066-1.811-2.98-2.928-4.252-2.37-2.7-1.519-3.108 1.212-.581m25.783-.976c-.475.45-1.431.818-2.124.818-1.802 0-1.954 2.772-.326 5.962 2.279 4.469 6.235 4.769 8.732.663 1.131-1.861 1.184-1.877 2.248-.7 1.494 1.65 4.522 2.819 5.87 2.265.92-.377.719-.637-1.153-1.489-2.871-1.306-5.234-3.222-5.795-4.697-.283-.743-.936-1.076-1.857-.945-.92.13-1.647-.24-2.065-1.053-.796-1.545-2.379-1.915-3.53-.824m-37.671 1.703c-1.33 1.868-1.677 3.21-.831 3.21.5 0 3.937-4.096 3.937-4.691 0-1.043-1.982-.098-3.106 1.481m39.841 1.078c-.293.764-.484.8-.875.168-.591-.956-.112-1.987.692-1.491.307.19.39.786.183 1.323m-29.26 1.383c1.8 2.528 2.383 5.158 1.143 5.158-1.645 0-3.405-2.844-3.089-4.994.156-1.064.374-1.935.484-1.935.111 0 .768.797 1.462 1.771m32.215 1.997c-.889 2.146-3.422 3.183-4.618 1.889-.569-.615-.568-.705.003-.385.409.23.914.142 1.122-.195.209-.337.755-.468 1.214-.292.504.194 1.153-.448 1.639-1.623.443-1.068.946-1.801 1.12-1.627.173.173-.043 1.178-.48 2.233m-13.955 1.001c-1.833.564-3.658 1.733-4.882 3.127-3.293 3.751-2.323 4.867 1.132 1.303 1.201-1.24 3.24-2.467 4.848-2.917 1.55-.434 2.773-1.157 2.773-1.639 0-1.031-.127-1.027-3.871.126m32.417 1.611c3.339 1.725 3.551 2.234 2.277 5.466-.641 1.627-1.355 4.091-1.586 5.477-.232 1.386-.57 2.094-.75 1.575-.181-.52-.608-1.127-.948-1.349-.378-.246-.218-.977.409-1.872 1.33-1.899 1.385-5.598.084-5.598-.678 0-.945.692-.945 2.452 0 1.643-.325 2.577-.985 2.83-.542.208-.844.606-.671.885.172.279.075.892-.215 1.362-.379.613-1.012-.11-2.235-2.55-.939-1.872-2.114-3.868-2.612-4.434-.807-.918-.7-1.101.986-1.689 1.039-.362 2.392-1.245 3.006-1.962 1.266-1.479 2.211-1.613 4.185-.593m-4.782 2.209c-.205.333-.113 1.017.205 1.52.319.503.583 1.694.589 2.647.006 1.116.346 1.732.954 1.732 1.353 0 1.213-3.309-.214-5.071-.638-.788-1.328-1.16-1.534-.828m18.304.583c1.174.822 3.287 3.964 3.287 4.887 0 .145-2.056.409-4.567.587-2.512.177-5.11.546-5.773.819-.886.366-1.076.288-.718-.292.268-.434 1.779-1.342 3.357-2.019 2.12-.909 2.685-1.414 2.162-1.936-1.098-1.098-6.589 1.968-7.338 4.097-.855 2.432.226 3.334 2.568 2.141.993-.506 3.718-1.12 6.057-1.364 4.197-.438 4.252-.425 4.252 1.076 0 .836-.326 3.138-.723 5.117-.891 4.439-1.821 5.053-6.221 4.11-1.782-.382-3.9-.569-4.707-.415-1.338.256-1.438.104-1.138-1.742.251-1.552.033-2.23-.94-2.911-1.152-.807-1.211-1.204-.646-4.312 1.125-6.191 3.348-8.826 7.445-8.826 1.232 0 2.871.443 3.643.983m-23.363 2.493 1.768 1.586-2.007-1.102c-2.854-1.567-3.354-.495-.788 1.693l2.165 1.846-2.52-1.188c-3.086-1.455-5.472-1.821-5.791-.887-.132.384 1.08 1.068 2.692 1.519 1.612.452 3.753 1.512 4.757 2.357 1.004.845 2.223 1.384 2.709 1.197 1.253-.481 1.893 1.582.698 2.251-1.401.784-1.211 4.414.335 6.38.994 1.264 1.867 1.659 3.659 1.659 1.295 0 2.873-.379 3.508-.843.743-.544 2.226-.741 4.167-.555 2.588.249 3.53.769 6.683 3.692 2.986 2.768 3.494 3.514 2.725 4.009-1.693 1.088-3.464.671-9.38-2.208-6.396-3.113-8.876-3.456-13.376-1.852-1.516.541-4.315 1.037-6.22 1.102-3.181.11-3.482.001-3.671-1.334-.27-1.908 1.485-4.53 3.033-4.53 1.266 0 5.677-3.477 5.677-4.475 0-1.089-1.685-.549-3.15 1.01-3.61 3.843-9.448-.183-9.448-6.517 0-2.25 1.057-3.177 5.601-4.906 4.549-1.731 4.131-1.738 6.174.096m-63.114 1.195c1.04.834 1.735 1.672 1.546 1.864-.479.484-4.38-1.962-4.38-2.746 0-1.003.79-.757 2.834.882m49.906 3.729c.162 4.065 1.386 6.876 3.635 8.349 1.48.97 1.504 1.092.579 2.882-1.482 2.865-.95 5.086 1.471 6.152 2.328 1.025 2.407 1.385 1.102 5.083-.52 1.473-.945 3.37-.945 4.216 0 .845-.751 2.523-1.67 3.727-1.983 2.599-2.654 7.387-1.521 10.846.458 1.398.551 2.868.234 3.715-.465 1.245-.884.789-3.757-4.095-3.97-6.747-6.133-11.043-7.791-15.475-.698-1.866-2.399-5.006-3.78-6.977l-2.51-3.583 2.681-1.153c4.508-1.937 4.364-1.985 6.977 2.347l2.445 4.054-1.092 2.423c-.725 1.608-.955 3.112-.682 4.473.478 2.394 2.896 6.18 3.95 6.186.854.005 2.737-5.164 2.735-7.509-.001-.928-1.615-4.042-3.778-7.289-2.077-3.118-3.777-5.948-3.778-6.288-.001-.341.738.47 1.642 1.8l1.644 2.419 1.187-1.8c1.925-2.921 1.541-5.862-1.325-10.155-1.386-2.075-2.52-4.213-2.52-4.75 0-1.153 3.06-3.723 4.044-3.397.374.124.745 1.834.823 3.799m-27.863-1.436c.056.847.561 3.028 1.121 4.847.561 1.819.9 3.307.752 3.307-.639 0-2.817-5.152-3.206-7.585-.328-2.054-.236-2.598.403-2.385.455.152.873.969.93 1.816m20.856-.35c-.657.498-1.441.753-1.742.567-.909-.562.084-1.513 1.557-1.492 1.335.02 1.341.05.185.925m-17.088 4.866c1.005 3.387 1.202 4.719.609 4.126-.647-.647-2.692-8.056-2.127-7.707.306.189.989 1.801 1.518 3.581m27.691-3.223c-.429.693.452 1.092 3.492 1.578 2.163.346 2.643.256 2.409-.45-.314-.945-5.412-1.92-5.901-1.128m-12.609 1.135c1.028 1.136 1.029 1.319.012 3.307-.592 1.157-2.235 3.182-3.651 4.5-1.928 1.793-2.364 2.525-1.737 2.913 1.124.695-.234 1.564-1.615 1.034-1.992-.765.004-8.118 3.132-11.54 1.584-1.731 2.443-1.779 3.859-.214m-2.94.737c-1.968 1.146-3.959 6.249-2.439 6.249.305 0 .897-.83 1.318-1.844.42-1.015 1.305-2.334 1.966-2.932 2-1.81 1.432-2.799-.845-1.473m22.852 1.005c-1.204.524-3.409.971-4.901.994-2.98.045-3.417 1.279-.572 1.615 2.529.3 8.605-1.633 8.605-2.737 0-1.115-.307-1.102-3.132.128m17.871-.321c-.227.367-.022.911.456 1.209 1.36.851 7.455 1.982 8.505 1.578 1.447-.555.384-1.631-1.611-1.631-.975 0-2.935-.41-4.356-.912-1.768-.623-2.712-.701-2.994-.244m-35.536 5.708c.011 1.235-1.99 2.663-4.573 3.263-1.702.395-1.681.338.787-2.13 1.395-1.395 2.54-2.89 2.545-3.323.016-1.232 1.23.912 1.241 2.19m3.089 2.062c-.017.825-.319.498-.875-.945-1.122-2.915-1.122-3.853 0-1.89.496.866.889 2.142.875 2.835m27.155-2.362c.001.433-.294.787-.656.787-.362 0-.574.496-.472 1.102.278 1.661-2.181 1.724-3.629.094-1.224-1.377-1.223-1.378.15-.658.757.397 1.537.722 1.733.722.757 0 .306-1.473-.67-2.186-.86-.629-.656-.742 1.258-.7 1.379.031 2.285.363 2.286.839m-69.73 3.727c1.108.578 2.866 1.232 3.905 1.454l1.89.405-1.476.803c-1.829.997-4.072.482-5.75-1.319-2.268-2.434-1.695-2.971 1.431-1.343m71.435 5.122c1.933.922 3.966 4.383 3.966 6.753 0 1.27-5.675 8.492-6.672 8.492-.441 0-1.407-.851-2.147-1.89-1.098-1.542-1.167-1.89-.374-1.89.771 0 .878-.425.517-2.047-.59-2.653-.579-6.009.029-8.189.368-1.324.263-1.732-.446-1.732-1.198 0-1.851 3.448-1.487 7.84l.279 3.372-1.778-1.315c-.979-.723-1.779-1.352-1.779-1.397 0-.906 2.267-7.23 2.983-8.324.814-1.242 1.311-1.423 2.933-1.067 1.074.236 2.863.863 3.976 1.394m-2.489 6.244c-.179 3.392-.531 6.662-.782 7.269-.321.774-.164 1.102.527 1.102 1.261 0 1.945-3.266 1.968-9.391.011-2.882-.251-4.758-.684-4.906-.471-.16-.81 1.792-1.029 5.926m-11.452-4.529c-1.294.98-2.018.824-1.331-.286.228-.37.894-.663 1.48-.652.935.017.917.132-.149.938m3.149 3.083c-.738 2.9-.962 3.149-3.541 3.91-1.514.447-2.894.672-3.066.5-.754-.754 2.255-4.791 4.61-6.183 1.42-.84 2.628-1.481 2.684-1.425.056.056-.253 1.495-.687 3.198m-14.587 2.342c.617 1.468.663 2.516.178 4.094-.358 1.167-.876 2.121-1.153 2.121-.798 0-1.806-2.285-1.806-4.094 0-1.62.984-4.095 1.628-4.095.177 0 .696.888 1.153 1.974m36.601 2.445c1.315 1.045 3.338 2.485 4.496 3.201 1.364.843 2.106 1.794 2.106 2.699 0 1.55-5.022 8.826-6.478 9.384-1.348.517-6.047-.67-7.947-2.007-.901-.634-2.276-1.351-3.055-1.593-.78-.242-1.417-.931-1.417-1.531 0-.6-.331-1.422-.736-1.827-.56-.56-.489-.83.301-1.132.569-.219 2.038-1.794 3.264-3.501 1.91-2.658 5.409-5.582 6.69-5.59.212-.001 1.462.853 2.776 1.897m-19.963 1.81c4.427 4.784 4.945 5.636 4.649 7.65-.271 1.846-.426 1.954-2.302 1.602-1.485-.279-2.744.037-4.803 1.205-5.444 3.087-6.997 3.623-8.506 2.935-4.383-1.997-.969-11.605 5.086-14.316 2.832-1.268 4.02-1.081 5.876.924m12.78.627c-1.401 1.401-1.787 3.223-.683 3.223.357 0 .821-.447 1.031-.993.677-1.765 3.143-2.233 5.918-1.123 1.392.558 2.716.83 2.941.605.899-.899-1.806-2.462-4.751-2.745-2.586-.248-3.352-.071-4.456 1.033m-21.49 2.223c0 .67.571 1.001 1.732 1.003.953.002 2.815.304 4.137.672 2.039.566 2.286.811 1.621 1.612-1.436 1.731-4.406 2.844-7.072 2.651-2.961-.213-3.49.711-.924 1.613 2.515.885 6.695-.59 9.198-3.243 1.152-1.222 1.865-2.432 1.583-2.689-.702-.641-4.371-1.706-7.598-2.205-2.2-.341-2.677-.236-2.677.586m22.966 1.672c-.229.369-.291.796-.138.949.469.469 4.258-.484 4.258-1.07 0-.789-3.623-.683-4.12.121m-3.439 2.716c0 1.095 3.398 2.533 5.984 2.533 2.327 0 5.985-1.401 5.985-2.292 0-.369-.713-.448-1.733-.193-4.134 1.034-5.736 1.053-7.602.088-2.37-1.226-2.634-1.24-2.634-.136m-8.658 4.958c.169.78.516 1.914.771 2.52.355.844.157 1.102-.843 1.102-.719 0-2.76 1.291-4.537 2.869-2.757 2.449-3.565 2.841-5.513 2.677-1.725-.145-2.518-.613-3.247-1.918-1.275-2.283-.32-3.82 2.675-4.308 1.234-.201 3.613-1.26 5.286-2.355 3.608-2.359 4.991-2.509 5.408-.587m-6.434 2.729c-2.317 2.094-3.304 4.043-2.047 4.043.275 0 1.718-1.243 3.209-2.761 3.365-3.429 2.397-4.497-1.162-1.282m12.16-1.284c-.205.534-.508.837-.673.672-.165-.166-.114-.603.115-.973.621-1.005.984-.809.558.301m4.358-.185c2.212 1.236 6.763 5.916 6.763 6.954 0 1.742-2.205 3.755-4.113 3.755-1.442 0-2.536-.79-5.13-3.701-2.938-3.298-3.17-3.759-2.138-4.238.637-.295 1.468-1.216 1.847-2.047.796-1.748.893-1.773 2.771-.723m-1.627 2.144c-.411.411 4.224 5.827 5.074 5.928 1.252.15.627-1.485-1.444-3.776-2.333-2.583-2.877-2.905-3.63-2.152m-5.606 2.46c1.132.793 1.276 1.218.748 2.205-.86 1.606-3.26 1.558-4.756-.094-1.169-1.292-1.169-1.334.023-2.205 1.551-1.134 2.255-1.117 3.985.094m12.159 111.143c.224 11.552-1.905 15.978-10.754 22.362-15.288 11.029-21.263 16.74-22.767 21.76-.684 2.285-.811 2.372-2.993 2.07-1.253-.173-2.633-.424-3.066-.557-1.367-.419-.9-6.518.865-11.304.894-2.425 2.46-7.386 3.479-11.024 4.01-14.31 7.616-19.532 21.341-30.902 3.711-3.074 7.871-7.199 9.449-9.368l2.819-3.876.75 7.113c.412 3.911.807 10.089.877 13.726m-4.625-11.39c-.47 5.183-3.447 10.464-9.634 17.094-9.507 10.186-12.08 14.07-15.464 23.349-1.059 2.903-2.52 6.338-3.247 7.633-.727 1.295-1.105 2.571-.839 2.834.89.883 3.323-3.044 5.105-8.237 3.399-9.908 5.881-13.814 14.93-23.496 2.546-2.724 5.522-6.251 6.613-7.839 3.553-5.169 6.004-15.066 3.731-15.066-.588 0-.963 1.169-1.195 3.728m-97.724 25.666c.162 3.006 4.174 8.184 8.486 10.951 4.833 3.102 10.744 4.98 19.803 6.292 4.508.653 9.4 1.612 10.873 2.131 3.863 1.364 8.122 4.485 10.01 7.339 1.658 2.505 2.731 3.155 2.731 1.655 0-1.586-3.835-6.013-6.929-7.998-3.996-2.564-7.061-3.467-15.956-4.697-11.304-1.563-17.036-3.653-22.154-8.078-2.259-1.954-6.348-7.942-4.968-7.275 11.208 5.41 15.798 6.831 26.07 8.073 7.767.939 13.337 2.309 17.629 4.335 6.025 2.844 11.3 9.533 11.333 14.372.017 2.371 1.531 9.845 2.525 12.459.635 1.67.393 1.548-2.655-1.334-1.844-1.745-4.019-3.528-4.833-3.964-3.108-1.663-10.725-3.898-17.374-5.097-17.286-3.119-26.612-8.287-32.443-17.98-2.08-3.457-5.048-11.299-5.048-13.336 0-1.473 2.817.618 2.9 2.152m104.015 16.17 2.664.073-1.756 1.906c-.966 1.048-2.538 3.133-3.493 4.632-2.234 3.507-5.647 5.115-10.897 5.134-5.422.019-9.642 1.12-15.745 4.108-4.556 2.231-5.247 2.418-5.247 1.422 0-1.72 1.606-5.228 3.576-7.811 2.267-2.973 10.046-9.518 11.776-9.909.737-.167 4.742-.152 8.899.034 4.158.186 8.758.371 10.223.411m-9.593 2.564c-5.922 1.957-7.874 2.934-7.874 3.941 0 1.078-.079 1.09 3.542-.532 1.69-.757 4.758-1.845 6.818-2.417 2.06-.573 3.855-1.371 3.989-1.774.361-1.081-1.529-.853-6.475.782m-75.905 8.443c3.638 1.056 8.315 2.264 10.394 2.685l3.78.766-3.863.8c-2.124.44-4.742 1.256-5.818 1.812-2.792 1.444-6.382 4.732-6.382 5.845 0 .662-.331.804-1.103.473-6.491-2.792-18.378-4.886-25.984-4.577-7.866.319-5.464 1.416 4.095 1.87 6.943.33 10.024.784 14.488 2.138 3.118.946 6.165 1.739 6.771 1.764.845.034 1.103.593 1.103 2.394 0 2.838 1.833 5.141 5.178 6.505l2.344.955-1.584-2.333c-3.986-5.875-.291-6.303 12.124-1.405 6.35 2.506 8.192 3.469 7.279 3.806-3.881 1.436-14.345 3.196-19.042 3.203-8.661.013-20.192-3.922-32.21-10.993-7.61-4.477-10.15-5.508-13.577-5.508-3.397 0-5.236-.888-5.236-2.529 0-.823.569-1.354 1.732-1.616 4.991-1.124 7.413-1.913 14.329-4.668 9.841-3.919 8.971-3.743 17.324-3.51 5.792.162 8.57.588 13.858 2.123m75.305 2.7c3.847.711 6.719 1.902 8.631 3.579 1.022.896.883 1.04-1.917 1.988-1.66.562-5.274 2.766-8.031 4.898-2.756 2.132-5.862 4.212-6.901 4.622-1.958.771-15.182.967-17.416.258-.985-.313-1.084-.572-.49-1.287.455-.548.594-1.827.358-3.301-.339-2.122-.178-2.558 1.376-3.706 4.392-3.248 11.855-6.303 17.37-7.111 1.766-.259 3.23-.507 3.253-.55.023-.043 1.718.231 3.767.61m-2.234 2.425c-.866.284-3.693 1.541-6.282 2.795-2.588 1.254-5.352 2.28-6.141 2.28-.79 0-1.435.284-1.435.63 0 1.476 4.966.568 9.196-1.681 2.942-1.565 5.523-2.43 7.986-2.677 2.001-.201 3.702-.65 3.779-.996.176-.788-4.986-1.043-7.103-.351m-44.506 2.138c4.79 1.739 9.014 4.945 11.747 8.917 1.041 1.513 1.893 2.885 1.893 3.049 0 .66-4.382 1.783-9.134 2.339-5.792.678-8.166.165-17.797-3.843-7.758-3.229-12.423-4.079-15.431-2.814-2.76 1.161.47-4.066 3.927-6.354 3.777-2.499 8.21-3.421 14.879-3.093 3.897.191 7.074.767 9.916 1.799m18.943-1.09c1.213.466 1.298 2.743.161 4.299-.935 1.278-2.356 1.035-4.752-.814-2.924-2.256.674-4.988 4.591-3.485m-38.885 2.407c-3.09.831-4.759 1.914-4.048 2.626.218.218 1.738-.061 3.377-.62 5.511-1.878 13.606-1.001 19.778 2.143 1.22.621 3.764 2.291 5.653 3.71 3.647 2.74 4.418 3.054 4.403 1.793-.013-1.028-5.508-5.041-9.647-7.046-6.83-3.308-13.561-4.206-19.516-2.606m38.787 4.884c.873.447.971.829.458 1.788-.359.67-1.168 1.494-1.797 1.831-.95.508-1.321.24-2.19-1.582-.575-1.206-1.046-2.473-1.046-2.814 0-.657 2.661-.205 4.575.777m-46.78 4.295c0 .347-.283.63-.63.63a.631.631 0 0 1-.629-.63.63.63 0 0 1 .629-.629c.347 0 .63.283.63.629" fill-rule="evenodd"/></svg>