<svg width="765" height="1320" viewBox="0 0 765 1320" class="keymap" xmlns="http://www.w3.org/2000/svg" xmlns:xlink="http://www.w3.org/1999/xlink">
<style>/* inherit to force styles through use tags */
svg path {
    fill: inherit;
}

/* font and background color specifications */
svg.keymap {
    font-family: SFMono-Regular,Consolas,Liberation Mono,Menlo,monospace;
    font-size: 14px;
    font-kerning: normal;
    text-rendering: optimizeLegibility;
    fill: #24292e;
}

/* default key styling */
rect.key {
    fill: #f6f8fa;
}

rect.key, rect.combo {
    stroke: #c9cccf;
    stroke-width: 1;
}

/* default key side styling, only used is draw_key_sides is set */
rect.side {
    filter: brightness(90%);
}

/* color accent for combo boxes */
rect.combo, rect.combo-separate {
    fill: #cdf;
}

/* color accent for held keys */
rect.held, rect.combo.held {
    fill: #fdd;
}

/* color accent for ghost (optional) keys */
rect.ghost, rect.combo.ghost {
    stroke-dasharray: 4, 4;
    stroke-width: 2;
}

text {
    text-anchor: middle;
    dominant-baseline: middle;
}

/* styling for layer labels */
text.label {
    font-weight: bold;
    text-anchor: start;
    stroke: white;
    stroke-width: 2;
    paint-order: stroke;
}

/* styling for combo tap, and key hold/shifted label text */
text.combo, text.hold, text.shifted {
    font-size: 11px;
}

text.hold {
    text-anchor: middle;
    dominant-baseline: auto;
}

text.shifted {
    text-anchor: middle;
    dominant-baseline: hanging;
}

/* styling for hold/shifted label text in combo box */
text.combo.hold, text.combo.shifted {
    font-size: 8px;
}

/* lighter symbol for transparent keys */
text.trans {
    fill: #7b7e81;
}

/* styling for combo dendrons */
path.combo {
    stroke-width: 1;
    stroke: gray;
    fill: none;
}

/* Start Tabler Icons Cleanup */
/* cannot use height/width with glyphs */
.icon-tabler > path {
    fill: inherit;
    stroke: inherit;
    stroke-width: 2;
}
/* hide tabler's default box */
.icon-tabler > path[stroke="none"][fill="none"] {
    visibility: hidden;
}
/* End Tabler Icons Cleanup */
</style>
<g transform="translate(30, 0)" class="layer-default">
<text x="0" y="28" class="label">default:</text>
<g transform="translate(0, 56)">
<g transform="translate(90, 28)" class="key keypos-0">
<rect rx="6" ry="6" x="-28" y="-26" width="56" height="52" class="key"/>
<text x="0" y="0" class="key tap">,</text>
</g>
<g transform="translate(150, 28)" class="key keypos-1">
<rect rx="6" ry="6" x="-28" y="-26" width="56" height="52" class="key"/>
<text x="0" y="0" class="key tap">.</text>
</g>
<g transform="translate(210, 28)" class="key keypos-2">
<rect rx="6" ry="6" x="-28" y="-26" width="56" height="52" class="key"/>
<text x="0" y="0" class="key tap">P</text>
</g>
<g transform="translate(270, 56)" class="key keypos-3">
<rect rx="6" ry="6" x="-28" y="-26" width="56" height="52" class="key"/>
<text x="0" y="0" class="key tap">Y</text>
</g>
<g transform="translate(420, 56)" class="key keypos-4">
<rect rx="6" ry="6" x="-28" y="-26" width="56" height="52" class="key"/>
<text x="0" y="0" class="key tap">F</text>
</g>
<g transform="translate(480, 28)" class="key keypos-5">
<rect rx="6" ry="6" x="-28" y="-26" width="56" height="52" class="key"/>
<text x="0" y="0" class="key tap">G</text>
</g>
<g transform="translate(540, 28)" class="key keypos-6">
<rect rx="6" ry="6" x="-28" y="-26" width="56" height="52" class="key"/>
<text x="0" y="0" class="key tap">C</text>
</g>
<g transform="translate(600, 28)" class="key keypos-7">
<rect rx="6" ry="6" x="-28" y="-26" width="56" height="52" class="key"/>
<text x="0" y="0" class="key tap">R</text>
</g>
<g transform="translate(30, 112)" class="key keypos-8">
<rect rx="6" ry="6" x="-28" y="-26" width="56" height="52" class="key"/>
<text x="0" y="0" class="key tap">A</text>
<text x="0" y="24" class="key hold">LALT</text>
</g>
<g transform="translate(90, 84)" class="key keypos-9">
<rect rx="6" ry="6" x="-28" y="-26" width="56" height="52" class="key"/>
<text x="0" y="0" class="key tap">O</text>
<text x="0" y="24" class="key hold">LGUI</text>
</g>
<g transform="translate(150, 84)" class="key keypos-10">
<rect rx="6" ry="6" x="-28" y="-26" width="56" height="52" class="key"/>
<text x="0" y="0" class="key tap">E</text>
<text x="0" y="24" class="key hold">LSFT</text>
</g>
<g transform="translate(210, 84)" class="key keypos-11">
<rect rx="6" ry="6" x="-28" y="-26" width="56" height="52" class="key"/>
<text x="0" y="0" class="key tap">U</text>
<text x="0" y="24" class="key hold">LCTL</text>
</g>
<g transform="translate(270, 112)" class="key keypos-12">
<rect rx="6" ry="6" x="-28" y="-26" width="56" height="52" class="key"/>
<text x="0" y="0" class="key tap">I</text>
</g>
<g transform="translate(420, 112)" class="key keypos-13">
<rect rx="6" ry="6" x="-28" y="-26" width="56" height="52" class="key"/>
<text x="0" y="0" class="key tap">D</text>
</g>
<g transform="translate(480, 84)" class="key keypos-14">
<rect rx="6" ry="6" x="-28" y="-26" width="56" height="52" class="key"/>
<text x="0" y="0" class="key tap">H</text>
<text x="0" y="24" class="key hold">LCTL</text>
</g>
<g transform="translate(540, 84)" class="key keypos-15">
<rect rx="6" ry="6" x="-28" y="-26" width="56" height="52" class="key"/>
<text x="0" y="0" class="key tap">T</text>
<text x="0" y="24" class="key hold">LSFT</text>
</g>
<g transform="translate(600, 84)" class="key keypos-16">
<rect rx="6" ry="6" x="-28" y="-26" width="56" height="52" class="key"/>
<text x="0" y="0" class="key tap">N</text>
<text x="0" y="24" class="key hold">LGUI</text>
</g>
<g transform="translate(660, 112)" class="key keypos-17">
<rect rx="6" ry="6" x="-28" y="-26" width="56" height="52" class="key"/>
<text x="0" y="0" class="key tap">S</text>
<text x="0" y="24" class="key hold">LALT</text>
</g>
<g transform="translate(30, 168)" class="key keypos-18">
<rect rx="6" ry="6" x="-28" y="-26" width="56" height="52" class="key"/>
<text x="0" y="0" class="key tap">&#x27;</text>
</g>
<g transform="translate(90, 140)" class="key keypos-19">
<rect rx="6" ry="6" x="-28" y="-26" width="56" height="52" class="key"/>
<text x="0" y="0" class="key tap">Q</text>
</g>
<g transform="translate(150, 140)" class="key keypos-20">
<rect rx="6" ry="6" x="-28" y="-26" width="56" height="52" class="key"/>
<text x="0" y="0" class="key tap">J</text>
</g>
<g transform="translate(210, 140)" class="key keypos-21">
<rect rx="6" ry="6" x="-28" y="-26" width="56" height="52" class="key"/>
<text x="0" y="0" class="key tap">K</text>
</g>
<g transform="translate(480, 140)" class="key keypos-22">
<rect rx="6" ry="6" x="-28" y="-26" width="56" height="52" class="key"/>
<text x="0" y="0" class="key tap">M</text>
</g>
<g transform="translate(540, 140)" class="key keypos-23">
<rect rx="6" ry="6" x="-28" y="-26" width="56" height="52" class="key"/>
<text x="0" y="0" class="key tap">W</text>
</g>
<g transform="translate(600, 140)" class="key keypos-24">
<rect rx="6" ry="6" x="-28" y="-26" width="56" height="52" class="key"/>
<text x="0" y="0" class="key tap">V</text>
</g>
<g transform="translate(660, 168)" class="key keypos-25">
<rect rx="6" ry="6" x="-28" y="-26" width="56" height="52" class="key"/>
<text x="0" y="0" class="key tap">L</text>
</g>
<g transform="translate(180, 196)" class="key keypos-26">
<rect rx="6" ry="6" x="-28" y="-26" width="56" height="52" class="key"/>
<text x="0" y="-24" class="key shifted">LEFT</text>
</g>
<g transform="translate(240, 196)" class="key keypos-27">
<rect rx="6" ry="6" x="-28" y="-26" width="56" height="52" class="key"/>
<text x="0" y="0" class="key tap">SPACE</text>
<text x="0" y="24" class="key hold">symbols</text>
<text x="0" y="-24" class="key shifted">RIGHT</text>
</g>
<g transform="translate(300, 196)" class="key keypos-28">
<rect rx="6" ry="6" x="-28" y="-26" width="56" height="52" class="key"/>
<text x="0" y="0" class="key tap">TAB</text>
<text x="0" y="24" class="key hold">others</text>
</g>
<g transform="translate(390, 196)" class="key keypos-29">
<rect rx="6" ry="6" x="-28" y="-26" width="56" height="52" class="key"/>
<text x="0" y="0" class="key tap"><tspan style="font-size: 70%">&amp;caps_word</tspan></text>
</g>
<g transform="translate(450, 196)" class="key keypos-30">
<rect rx="6" ry="6" x="-28" y="-26" width="56" height="52" class="key"/>
<text x="0" y="0" class="key tap">BSPC</text>
<text x="0" y="24" class="key hold">symbols</text>
<text x="0" y="-24" class="key shifted">DOWN</text>
</g>
<g transform="translate(510, 196)" class="key keypos-31">
<rect rx="6" ry="6" x="-28" y="-26" width="56" height="52" class="key"/>
<text x="0" y="0" class="key tap">DEL</text>
<text x="0" y="-24" class="key shifted">UP</text>
</g>
<g class="combo combopos-0">
<rect rx="6" ry="6" x="106" y="15" width="28" height="26" class="combo"/>
<text x="120" y="28" class="combo tap">;</text>
</g>
<g class="combo combopos-1">
<rect rx="6" ry="6" x="166" y="15" width="28" height="26" class="combo"/>
<text x="180" y="28" class="combo tap">X</text>
</g>
<g class="combo combopos-2">
<rect rx="6" ry="6" x="556" y="15" width="28" height="26" class="combo"/>
<text x="570" y="28" class="combo tap">B</text>
</g>
<g class="combo combopos-3">
<rect rx="6" ry="6" x="496" y="15" width="28" height="26" class="combo"/>
<text x="510" y="28" class="combo tap">Z</text>
</g>
<g class="combo combopos-4">
<rect rx="6" ry="6" x="646" y="127" width="28" height="26" class="combo"/>
<text x="660" y="140" class="combo tap">Z</text>
</g>
<g class="combo combopos-5">
<rect rx="6" ry="6" x="16" y="127" width="28" height="26" class="combo"/>
<text x="30" y="140" class="combo tap">:</text>
</g>
<g class="combo combopos-6">
<rect rx="6" ry="6" x="136" y="43" width="28" height="26" class="combo"/>
<text x="150" y="56" class="combo tap">[</text>
</g>
<g class="combo combopos-7">
<rect rx="6" ry="6" x="526" y="43" width="28" height="26" class="combo"/>
<text x="540" y="56" class="combo tap">]</text>
</g>
<g class="combo combopos-8">
<rect rx="6" ry="6" x="196" y="43" width="28" height="26" class="combo"/>
<text x="210" y="56" class="combo tap">(</text>
</g>
<g class="combo combopos-9">
<rect rx="6" ry="6" x="466" y="43" width="28" height="26" class="combo"/>
<text x="480" y="56" class="combo tap">)</text>
</g>
<g class="combo combopos-10">
<rect rx="6" ry="6" x="256" y="71" width="28" height="26" class="combo"/>
<text x="270" y="84" class="combo tap">{</text>
</g>
<g class="combo combopos-11">
<rect rx="6" ry="6" x="406" y="71" width="28" height="26" class="combo"/>
<text x="420" y="84" class="combo tap">}</text>
</g>
<g class="combo combopos-12">
<rect rx="6" ry="6" x="166" y="127" width="28" height="26" class="combo"/>
<text x="180" y="140" class="combo tap">-</text>
</g>
<g class="combo combopos-13">
<rect rx="6" ry="6" x="496" y="127" width="28" height="26" class="combo"/>
<text x="510" y="140" class="combo tap">_</text>
</g>
</g>
</g>
<g transform="translate(30, 280)" class="layer-symbols">
<text x="0" y="28" class="label">symbols:</text>
<g transform="translate(0, 56)">
<g transform="translate(90, 28)" class="key keypos-0">
<rect rx="6" ry="6" x="-28" y="-26" width="56" height="52" class="key"/>
<text x="0" y="0" class="key tap">!</text>
</g>
<g transform="translate(150, 28)" class="key keypos-1">
<rect rx="6" ry="6" x="-28" y="-26" width="56" height="52" class="key"/>
<text x="0" y="0" class="key tap">@</text>
</g>
<g transform="translate(210, 28)" class="key keypos-2">
<rect rx="6" ry="6" x="-28" y="-26" width="56" height="52" class="key"/>
<text x="0" y="0" class="key tap">#</text>
</g>
<g transform="translate(270, 56)" class="key keypos-3">
<rect rx="6" ry="6" x="-28" y="-26" width="56" height="52" class="key"/>
<text x="0" y="0" class="key tap">\</text>
</g>
<g transform="translate(420, 56)" class="key keypos-4">
<rect rx="6" ry="6" x="-28" y="-26" width="56" height="52" class="key"/>
<text x="0" y="0" class="key tap">?</text>
</g>
<g transform="translate(480, 28)" class="key keypos-5">
<rect rx="6" ry="6" x="-28" y="-26" width="56" height="52" class="key"/>
<text x="0" y="0" class="key tap">7</text>
</g>
<g transform="translate(540, 28)" class="key keypos-6">
<rect rx="6" ry="6" x="-28" y="-26" width="56" height="52" class="key"/>
<text x="0" y="0" class="key tap">8</text>
</g>
<g transform="translate(600, 28)" class="key keypos-7">
<rect rx="6" ry="6" x="-28" y="-26" width="56" height="52" class="key"/>
<text x="0" y="0" class="key tap">9</text>
</g>
<g transform="translate(30, 112)" class="key keypos-8">
<rect rx="6" ry="6" x="-28" y="-26" width="56" height="52" class="key"/>
<text x="0" y="0" class="key tap">:</text>
<text x="0" y="24" class="key hold">LALT</text>
</g>
<g transform="translate(90, 84)" class="key keypos-9">
<rect rx="6" ry="6" x="-28" y="-26" width="56" height="52" class="key"/>
<text x="0" y="0" class="key tap">$</text>
<text x="0" y="24" class="key hold">LGUI</text>
</g>
<g transform="translate(150, 84)" class="key keypos-10">
<rect rx="6" ry="6" x="-28" y="-26" width="56" height="52" class="key"/>
<text x="0" y="0" class="key tap">%</text>
<text x="0" y="24" class="key hold">LSFT</text>
</g>
<g transform="translate(210, 84)" class="key keypos-11">
<rect rx="6" ry="6" x="-28" y="-26" width="56" height="52" class="key"/>
<text x="0" y="0" class="key tap">^</text>
<text x="0" y="24" class="key hold">LCTL</text>
</g>
<g transform="translate(270, 112)" class="key keypos-12">
<rect rx="6" ry="6" x="-28" y="-26" width="56" height="52" class="key"/>
<text x="0" y="0" class="key tap">/</text>
</g>
<g transform="translate(420, 112)" class="key keypos-13">
<rect rx="6" ry="6" x="-28" y="-26" width="56" height="52" class="key"/>
<text x="0" y="0" class="key tap">=</text>
</g>
<g transform="translate(480, 84)" class="key keypos-14">
<rect rx="6" ry="6" x="-28" y="-26" width="56" height="52" class="key"/>
<text x="0" y="0" class="key tap">4</text>
<text x="0" y="24" class="key hold">LCTL</text>
</g>
<g transform="translate(540, 84)" class="key keypos-15">
<rect rx="6" ry="6" x="-28" y="-26" width="56" height="52" class="key"/>
<text x="0" y="0" class="key tap">5</text>
<text x="0" y="24" class="key hold">LSFT</text>
</g>
<g transform="translate(600, 84)" class="key keypos-16">
<rect rx="6" ry="6" x="-28" y="-26" width="56" height="52" class="key"/>
<text x="0" y="0" class="key tap">6</text>
<text x="0" y="24" class="key hold">LGUI</text>
</g>
<g transform="translate(660, 112)" class="key keypos-17">
<rect rx="6" ry="6" x="-28" y="-26" width="56" height="52" class="key"/>
<text x="0" y="0" class="key tap">+</text>
<text x="0" y="24" class="key hold">LALT</text>
</g>
<g transform="translate(30, 168)" class="key keypos-18">
<rect rx="6" ry="6" x="-28" y="-26" width="56" height="52" class="key"/>
<text x="0" y="0" class="key tap">`</text>
</g>
<g transform="translate(90, 140)" class="key keypos-19">
<rect rx="6" ry="6" x="-28" y="-26" width="56" height="52" class="key"/>
<text x="0" y="0" class="key tap">&amp;</text>
</g>
<g transform="translate(150, 140)" class="key keypos-20">
<rect rx="6" ry="6" x="-28" y="-26" width="56" height="52" class="key"/>
<text x="0" y="0" class="key tap">*</text>
</g>
<g transform="translate(210, 140)" class="key keypos-21">
<rect rx="6" ry="6" x="-28" y="-26" width="56" height="52" class="key"/>
<text x="0" y="0" class="key tap">|</text>
</g>
<g transform="translate(480, 140)" class="key keypos-22">
<rect rx="6" ry="6" x="-28" y="-26" width="56" height="52" class="key"/>
<text x="0" y="0" class="key tap">1</text>
</g>
<g transform="translate(540, 140)" class="key keypos-23">
<rect rx="6" ry="6" x="-28" y="-26" width="56" height="52" class="key"/>
<text x="0" y="0" class="key tap">2</text>
</g>
<g transform="translate(600, 140)" class="key keypos-24">
<rect rx="6" ry="6" x="-28" y="-26" width="56" height="52" class="key"/>
<text x="0" y="0" class="key tap">3</text>
</g>
<g transform="translate(660, 168)" class="key keypos-25">
<rect rx="6" ry="6" x="-28" y="-26" width="56" height="52" class="key"/>
<text x="0" y="0" class="key tap">~</text>
</g>
<g transform="translate(180, 196)" class="key trans keypos-26">
<rect rx="6" ry="6" x="-28" y="-26" width="56" height="52" class="key trans"/>
<text x="0" y="0" class="key trans tap">▽</text>
</g>
<g transform="translate(240, 196)" class="key held keypos-27">
<rect rx="6" ry="6" x="-28" y="-26" width="56" height="52" class="key held"/>
</g>
<g transform="translate(300, 196)" class="key trans keypos-28">
<rect rx="6" ry="6" x="-28" y="-26" width="56" height="52" class="key trans"/>
<text x="0" y="0" class="key trans tap">▽</text>
</g>
<g transform="translate(390, 196)" class="key trans keypos-29">
<rect rx="6" ry="6" x="-28" y="-26" width="56" height="52" class="key trans"/>
<text x="0" y="0" class="key trans tap">▽</text>
</g>
<g transform="translate(450, 196)" class="key trans keypos-30">
<rect rx="6" ry="6" x="-28" y="-26" width="56" height="52" class="key trans"/>
<text x="0" y="0" class="key trans tap">▽</text>
</g>
<g transform="translate(510, 196)" class="key keypos-31">
<rect rx="6" ry="6" x="-28" y="-26" width="56" height="52" class="key"/>
<text x="0" y="0" class="key tap">0</text>
</g>
</g>
</g>
<g transform="translate(30, 560)" class="layer-others">
<text x="0" y="28" class="label">others:</text>
<g transform="translate(0, 56)">
<g transform="translate(90, 28)" class="key keypos-0">
<rect rx="6" ry="6" x="-28" y="-26" width="56" height="52" class="key"/>
</g>
<g transform="translate(150, 28)" class="key keypos-1">
<rect rx="6" ry="6" x="-28" y="-26" width="56" height="52" class="key"/>
</g>
<g transform="translate(210, 28)" class="key keypos-2">
<rect rx="6" ry="6" x="-28" y="-26" width="56" height="52" class="key"/>
</g>
<g transform="translate(270, 56)" class="key keypos-3">
<rect rx="6" ry="6" x="-28" y="-26" width="56" height="52" class="key"/>
</g>
<g transform="translate(420, 56)" class="key keypos-4">
<rect rx="6" ry="6" x="-28" y="-26" width="56" height="52" class="key"/>
</g>
<g transform="translate(480, 28)" class="key keypos-5">
<rect rx="6" ry="6" x="-28" y="-26" width="56" height="52" class="key"/>
<text x="0" y="0" class="key tap">MUTE</text>
</g>
<g transform="translate(540, 28)" class="key keypos-6">
<rect rx="6" ry="6" x="-28" y="-26" width="56" height="52" class="key"/>
<text x="0" y="0" class="key tap">
<tspan x="0" dy="-0.6em">VOLUME</tspan><tspan x="0" dy="1.2em">DOWN</tspan>
</text>
</g>
<g transform="translate(600, 28)" class="key keypos-7">
<rect rx="6" ry="6" x="-28" y="-26" width="56" height="52" class="key"/>
<text x="0" y="0" class="key tap">
<tspan x="0" dy="-0.6em">VOLUME</tspan><tspan x="0" dy="1.2em">UP</tspan>
</text>
</g>
<g transform="translate(30, 112)" class="key keypos-8">
<rect rx="6" ry="6" x="-28" y="-26" width="56" height="52" class="key"/>
</g>
<g transform="translate(90, 84)" class="key keypos-9">
<rect rx="6" ry="6" x="-28" y="-26" width="56" height="52" class="key"/>
</g>
<g transform="translate(150, 84)" class="key keypos-10">
<rect rx="6" ry="6" x="-28" y="-26" width="56" height="52" class="key"/>
</g>
<g transform="translate(210, 84)" class="key keypos-11">
<rect rx="6" ry="6" x="-28" y="-26" width="56" height="52" class="key"/>
</g>
<g transform="translate(270, 112)" class="key keypos-12">
<rect rx="6" ry="6" x="-28" y="-26" width="56" height="52" class="key"/>
</g>
<g transform="translate(420, 112)" class="key keypos-13">
<rect rx="6" ry="6" x="-28" y="-26" width="56" height="52" class="key"/>
<text x="0" y="0" class="key tap">BT</text>
<text x="0" y="24" class="key hold">4</text>
</g>
<g transform="translate(480, 84)" class="key keypos-14">
<rect rx="6" ry="6" x="-28" y="-26" width="56" height="52" class="key"/>
<text x="0" y="0" class="key tap">BT</text>
<text x="0" y="24" class="key hold">0</text>
</g>
<g transform="translate(540, 84)" class="key keypos-15">
<rect rx="6" ry="6" x="-28" y="-26" width="56" height="52" class="key"/>
<text x="0" y="0" class="key tap">BT</text>
<text x="0" y="24" class="key hold">1</text>
</g>
<g transform="translate(600, 84)" class="key keypos-16">
<rect rx="6" ry="6" x="-28" y="-26" width="56" height="52" class="key"/>
<text x="0" y="0" class="key tap">BT</text>
<text x="0" y="24" class="key hold">2</text>
</g>
<g transform="translate(660, 112)" class="key keypos-17">
<rect rx="6" ry="6" x="-28" y="-26" width="56" height="52" class="key"/>
<text x="0" y="0" class="key tap">BT</text>
<text x="0" y="24" class="key hold">3</text>
</g>
<g transform="translate(30, 168)" class="key keypos-18">
<rect rx="6" ry="6" x="-28" y="-26" width="56" height="52" class="key"/>
</g>
<g transform="translate(90, 140)" class="key keypos-19">
<rect rx="6" ry="6" x="-28" y="-26" width="56" height="52" class="key"/>
</g>
<g transform="translate(150, 140)" class="key keypos-20">
<rect rx="6" ry="6" x="-28" y="-26" width="56" height="52" class="key"/>
</g>
<g transform="translate(210, 140)" class="key keypos-21">
<rect rx="6" ry="6" x="-28" y="-26" width="56" height="52" class="key"/>
</g>
<g transform="translate(480, 140)" class="key keypos-22">
<rect rx="6" ry="6" x="-28" y="-26" width="56" height="52" class="key"/>
</g>
<g transform="translate(540, 140)" class="key keypos-23">
<rect rx="6" ry="6" x="-28" y="-26" width="56" height="52" class="key"/>
</g>
<g transform="translate(600, 140)" class="key keypos-24">
<rect rx="6" ry="6" x="-28" y="-26" width="56" height="52" class="key"/>
</g>
<g transform="translate(660, 168)" class="key keypos-25">
<rect rx="6" ry="6" x="-28" y="-26" width="56" height="52" class="key"/>
<text x="0" y="0" class="key tap">
<tspan x="0" dy="-0.6em">BT</tspan><tspan x="0" dy="1.2em">CLR</tspan>
</text>
</g>
<g transform="translate(180, 196)" class="key trans keypos-26">
<rect rx="6" ry="6" x="-28" y="-26" width="56" height="52" class="key trans"/>
<text x="0" y="0" class="key trans tap">▽</text>
</g>
<g transform="translate(240, 196)" class="key trans keypos-27">
<rect rx="6" ry="6" x="-28" y="-26" width="56" height="52" class="key trans"/>
<text x="0" y="0" class="key trans tap">▽</text>
</g>
<g transform="translate(300, 196)" class="key held keypos-28">
<rect rx="6" ry="6" x="-28" y="-26" width="56" height="52" class="key held"/>
</g>
<g transform="translate(390, 196)" class="key trans keypos-29">
<rect rx="6" ry="6" x="-28" y="-26" width="56" height="52" class="key trans"/>
<text x="0" y="0" class="key trans tap">▽</text>
</g>
<g transform="translate(450, 196)" class="key keypos-30">
<rect rx="6" ry="6" x="-28" y="-26" width="56" height="52" class="key"/>
<text x="0" y="0" class="key tap">PP</text>
</g>
<g transform="translate(510, 196)" class="key trans keypos-31">
<rect rx="6" ry="6" x="-28" y="-26" width="56" height="52" class="key trans"/>
<text x="0" y="0" class="key trans tap">▽</text>
</g>
</g>
</g>
<text x="30" y="868" class="label">Combos:</text>
<g transform="translate(30, 840)" class="layer-combopos-0">
<g transform="translate(0, 56)">
<g transform="translate(30, 28)" class="key  combo-separate keypos-0">
<rect rx="6" ry="6" x="-28" y="-26" width="56" height="52" class="key  combo-separate"/>
<text x="0" y="0" class="key  combo-separate tap">HOME</text>
</g>
<g transform="translate(45, 72)" class="key keypos-1">
<rect rx="6" ry="6" x="-13" y="-12" width="26" height="24" class="key"/>
</g>
<g transform="translate(75, 72)" class="key keypos-2">
<rect rx="6" ry="6" x="-13" y="-12" width="26" height="24" class="key"/>
</g>
<g transform="translate(105, 72)" class="key keypos-3">
<rect rx="6" ry="6" x="-13" y="-12" width="26" height="24" class="key"/>
</g>
<g transform="translate(135, 86)" class="key keypos-4">
<rect rx="6" ry="6" x="-13" y="-12" width="26" height="24" class="key"/>
</g>
<g transform="translate(210, 86)" class="key keypos-5">
<rect rx="6" ry="6" x="-13" y="-12" width="26" height="24" class="key"/>
</g>
<g transform="translate(240, 72)" class="key keypos-6">
<rect rx="6" ry="6" x="-13" y="-12" width="26" height="24" class="key"/>
</g>
<g transform="translate(270, 72)" class="key keypos-7">
<rect rx="6" ry="6" x="-13" y="-12" width="26" height="24" class="key"/>
</g>
<g transform="translate(300, 72)" class="key keypos-8">
<rect rx="6" ry="6" x="-13" y="-12" width="26" height="24" class="key"/>
</g>
<g transform="translate(15, 114)" class="key keypos-9">
<rect rx="6" ry="6" x="-13" y="-12" width="26" height="24" class="key"/>
</g>
<g transform="translate(45, 100)" class="key held keypos-10">
<rect rx="6" ry="6" x="-13" y="-12" width="26" height="24" class="key held"/>
</g>
<g transform="translate(75, 100)" class="key held keypos-11">
<rect rx="6" ry="6" x="-13" y="-12" width="26" height="24" class="key held"/>
</g>
<g transform="translate(105, 100)" class="key held keypos-12">
<rect rx="6" ry="6" x="-13" y="-12" width="26" height="24" class="key held"/>
</g>
<g transform="translate(135, 114)" class="key keypos-13">
<rect rx="6" ry="6" x="-13" y="-12" width="26" height="24" class="key"/>
</g>
<g transform="translate(210, 114)" class="key keypos-14">
<rect rx="6" ry="6" x="-13" y="-12" width="26" height="24" class="key"/>
</g>
<g transform="translate(240, 100)" class="key keypos-15">
<rect rx="6" ry="6" x="-13" y="-12" width="26" height="24" class="key"/>
</g>
<g transform="translate(270, 100)" class="key keypos-16">
<rect rx="6" ry="6" x="-13" y="-12" width="26" height="24" class="key"/>
</g>
<g transform="translate(300, 100)" class="key keypos-17">
<rect rx="6" ry="6" x="-13" y="-12" width="26" height="24" class="key"/>
</g>
<g transform="translate(330, 114)" class="key keypos-18">
<rect rx="6" ry="6" x="-13" y="-12" width="26" height="24" class="key"/>
</g>
<g transform="translate(15, 142)" class="key keypos-19">
<rect rx="6" ry="6" x="-13" y="-12" width="26" height="24" class="key"/>
</g>
<g transform="translate(45, 128)" class="key keypos-20">
<rect rx="6" ry="6" x="-13" y="-12" width="26" height="24" class="key"/>
</g>
<g transform="translate(75, 128)" class="key keypos-21">
<rect rx="6" ry="6" x="-13" y="-12" width="26" height="24" class="key"/>
</g>
<g transform="translate(105, 128)" class="key keypos-22">
<rect rx="6" ry="6" x="-13" y="-12" width="26" height="24" class="key"/>
</g>
<g transform="translate(240, 128)" class="key keypos-23">
<rect rx="6" ry="6" x="-13" y="-12" width="26" height="24" class="key"/>
</g>
<g transform="translate(270, 128)" class="key keypos-24">
<rect rx="6" ry="6" x="-13" y="-12" width="26" height="24" class="key"/>
</g>
<g transform="translate(300, 128)" class="key keypos-25">
<rect rx="6" ry="6" x="-13" y="-12" width="26" height="24" class="key"/>
</g>
<g transform="translate(330, 142)" class="key keypos-26">
<rect rx="6" ry="6" x="-13" y="-12" width="26" height="24" class="key"/>
</g>
<g transform="translate(90, 156)" class="key keypos-27">
<rect rx="6" ry="6" x="-13" y="-12" width="26" height="24" class="key"/>
</g>
<g transform="translate(120, 156)" class="key keypos-28">
<rect rx="6" ry="6" x="-13" y="-12" width="26" height="24" class="key"/>
</g>
<g transform="translate(150, 156)" class="key keypos-29">
<rect rx="6" ry="6" x="-13" y="-12" width="26" height="24" class="key"/>
</g>
<g transform="translate(195, 156)" class="key keypos-30">
<rect rx="6" ry="6" x="-13" y="-12" width="26" height="24" class="key"/>
</g>
<g transform="translate(225, 156)" class="key keypos-31">
<rect rx="6" ry="6" x="-13" y="-12" width="26" height="24" class="key"/>
</g>
<g transform="translate(255, 156)" class="key keypos-32">
<rect rx="6" ry="6" x="-13" y="-12" width="26" height="24" class="key"/>
</g>
</g>
</g>
<g transform="translate(405, 840)" class="layer-combopos-1">
<g transform="translate(0, 56)">
<g transform="translate(30, 28)" class="key  combo-separate keypos-0">
<rect rx="6" ry="6" x="-28" y="-26" width="56" height="52" class="key  combo-separate"/>
<text x="0" y="0" class="key  combo-separate tap">END</text>
</g>
<g transform="translate(45, 72)" class="key keypos-1">
<rect rx="6" ry="6" x="-13" y="-12" width="26" height="24" class="key"/>
</g>
<g transform="translate(75, 72)" class="key keypos-2">
<rect rx="6" ry="6" x="-13" y="-12" width="26" height="24" class="key"/>
</g>
<g transform="translate(105, 72)" class="key keypos-3">
<rect rx="6" ry="6" x="-13" y="-12" width="26" height="24" class="key"/>
</g>
<g transform="translate(135, 86)" class="key keypos-4">
<rect rx="6" ry="6" x="-13" y="-12" width="26" height="24" class="key"/>
</g>
<g transform="translate(210, 86)" class="key keypos-5">
<rect rx="6" ry="6" x="-13" y="-12" width="26" height="24" class="key"/>
</g>
<g transform="translate(240, 72)" class="key keypos-6">
<rect rx="6" ry="6" x="-13" y="-12" width="26" height="24" class="key"/>
</g>
<g transform="translate(270, 72)" class="key keypos-7">
<rect rx="6" ry="6" x="-13" y="-12" width="26" height="24" class="key"/>
</g>
<g transform="translate(300, 72)" class="key keypos-8">
<rect rx="6" ry="6" x="-13" y="-12" width="26" height="24" class="key"/>
</g>
<g transform="translate(15, 114)" class="key keypos-9">
<rect rx="6" ry="6" x="-13" y="-12" width="26" height="24" class="key"/>
</g>
<g transform="translate(45, 100)" class="key keypos-10">
<rect rx="6" ry="6" x="-13" y="-12" width="26" height="24" class="key"/>
</g>
<g transform="translate(75, 100)" class="key keypos-11">
<rect rx="6" ry="6" x="-13" y="-12" width="26" height="24" class="key"/>
</g>
<g transform="translate(105, 100)" class="key keypos-12">
<rect rx="6" ry="6" x="-13" y="-12" width="26" height="24" class="key"/>
</g>
<g transform="translate(135, 114)" class="key keypos-13">
<rect rx="6" ry="6" x="-13" y="-12" width="26" height="24" class="key"/>
</g>
<g transform="translate(210, 114)" class="key keypos-14">
<rect rx="6" ry="6" x="-13" y="-12" width="26" height="24" class="key"/>
</g>
<g transform="translate(240, 100)" class="key held keypos-15">
<rect rx="6" ry="6" x="-13" y="-12" width="26" height="24" class="key held"/>
</g>
<g transform="translate(270, 100)" class="key held keypos-16">
<rect rx="6" ry="6" x="-13" y="-12" width="26" height="24" class="key held"/>
</g>
<g transform="translate(300, 100)" class="key held keypos-17">
<rect rx="6" ry="6" x="-13" y="-12" width="26" height="24" class="key held"/>
</g>
<g transform="translate(330, 114)" class="key keypos-18">
<rect rx="6" ry="6" x="-13" y="-12" width="26" height="24" class="key"/>
</g>
<g transform="translate(15, 142)" class="key keypos-19">
<rect rx="6" ry="6" x="-13" y="-12" width="26" height="24" class="key"/>
</g>
<g transform="translate(45, 128)" class="key keypos-20">
<rect rx="6" ry="6" x="-13" y="-12" width="26" height="24" class="key"/>
</g>
<g transform="translate(75, 128)" class="key keypos-21">
<rect rx="6" ry="6" x="-13" y="-12" width="26" height="24" class="key"/>
</g>
<g transform="translate(105, 128)" class="key keypos-22">
<rect rx="6" ry="6" x="-13" y="-12" width="26" height="24" class="key"/>
</g>
<g transform="translate(240, 128)" class="key keypos-23">
<rect rx="6" ry="6" x="-13" y="-12" width="26" height="24" class="key"/>
</g>
<g transform="translate(270, 128)" class="key keypos-24">
<rect rx="6" ry="6" x="-13" y="-12" width="26" height="24" class="key"/>
</g>
<g transform="translate(300, 128)" class="key keypos-25">
<rect rx="6" ry="6" x="-13" y="-12" width="26" height="24" class="key"/>
</g>
<g transform="translate(330, 142)" class="key keypos-26">
<rect rx="6" ry="6" x="-13" y="-12" width="26" height="24" class="key"/>
</g>
<g transform="translate(90, 156)" class="key keypos-27">
<rect rx="6" ry="6" x="-13" y="-12" width="26" height="24" class="key"/>
</g>
<g transform="translate(120, 156)" class="key keypos-28">
<rect rx="6" ry="6" x="-13" y="-12" width="26" height="24" class="key"/>
</g>
<g transform="translate(150, 156)" class="key keypos-29">
<rect rx="6" ry="6" x="-13" y="-12" width="26" height="24" class="key"/>
</g>
<g transform="translate(195, 156)" class="key keypos-30">
<rect rx="6" ry="6" x="-13" y="-12" width="26" height="24" class="key"/>
</g>
<g transform="translate(225, 156)" class="key keypos-31">
<rect rx="6" ry="6" x="-13" y="-12" width="26" height="24" class="key"/>
</g>
<g transform="translate(255, 156)" class="key keypos-32">
<rect rx="6" ry="6" x="-13" y="-12" width="26" height="24" class="key"/>
</g>
</g>
</g>
<g transform="translate(30, 1066)" class="layer-combopos-2">
<g transform="translate(0, 28)">
<g transform="translate(30, 28)" class="key  combo-separate keypos-0">
<rect rx="6" ry="6" x="-28" y="-26" width="56" height="52" class="key  combo-separate"/>
<text x="0" y="0" class="key  combo-separate tap">ESC</text>
</g>
<g transform="translate(45, 72)" class="key keypos-1">
<rect rx="6" ry="6" x="-13" y="-12" width="26" height="24" class="key"/>
</g>
<g transform="translate(75, 72)" class="key keypos-2">
<rect rx="6" ry="6" x="-13" y="-12" width="26" height="24" class="key"/>
</g>
<g transform="translate(105, 72)" class="key keypos-3">
<rect rx="6" ry="6" x="-13" y="-12" width="26" height="24" class="key"/>
</g>
<g transform="translate(135, 86)" class="key keypos-4">
<rect rx="6" ry="6" x="-13" y="-12" width="26" height="24" class="key"/>
</g>
<g transform="translate(210, 86)" class="key keypos-5">
<rect rx="6" ry="6" x="-13" y="-12" width="26" height="24" class="key"/>
</g>
<g transform="translate(240, 72)" class="key keypos-6">
<rect rx="6" ry="6" x="-13" y="-12" width="26" height="24" class="key"/>
</g>
<g transform="translate(270, 72)" class="key keypos-7">
<rect rx="6" ry="6" x="-13" y="-12" width="26" height="24" class="key"/>
</g>
<g transform="translate(300, 72)" class="key keypos-8">
<rect rx="6" ry="6" x="-13" y="-12" width="26" height="24" class="key"/>
</g>
<g transform="translate(15, 114)" class="key keypos-9">
<rect rx="6" ry="6" x="-13" y="-12" width="26" height="24" class="key"/>
</g>
<g transform="translate(45, 100)" class="key keypos-10">
<rect rx="6" ry="6" x="-13" y="-12" width="26" height="24" class="key"/>
</g>
<g transform="translate(75, 100)" class="key keypos-11">
<rect rx="6" ry="6" x="-13" y="-12" width="26" height="24" class="key"/>
</g>
<g transform="translate(105, 100)" class="key held keypos-12">
<rect rx="6" ry="6" x="-13" y="-12" width="26" height="24" class="key held"/>
</g>
<g transform="translate(135, 114)" class="key keypos-13">
<rect rx="6" ry="6" x="-13" y="-12" width="26" height="24" class="key"/>
</g>
<g transform="translate(210, 114)" class="key keypos-14">
<rect rx="6" ry="6" x="-13" y="-12" width="26" height="24" class="key"/>
</g>
<g transform="translate(240, 100)" class="key held keypos-15">
<rect rx="6" ry="6" x="-13" y="-12" width="26" height="24" class="key held"/>
</g>
<g transform="translate(270, 100)" class="key keypos-16">
<rect rx="6" ry="6" x="-13" y="-12" width="26" height="24" class="key"/>
</g>
<g transform="translate(300, 100)" class="key keypos-17">
<rect rx="6" ry="6" x="-13" y="-12" width="26" height="24" class="key"/>
</g>
<g transform="translate(330, 114)" class="key keypos-18">
<rect rx="6" ry="6" x="-13" y="-12" width="26" height="24" class="key"/>
</g>
<g transform="translate(15, 142)" class="key keypos-19">
<rect rx="6" ry="6" x="-13" y="-12" width="26" height="24" class="key"/>
</g>
<g transform="translate(45, 128)" class="key keypos-20">
<rect rx="6" ry="6" x="-13" y="-12" width="26" height="24" class="key"/>
</g>
<g transform="translate(75, 128)" class="key keypos-21">
<rect rx="6" ry="6" x="-13" y="-12" width="26" height="24" class="key"/>
</g>
<g transform="translate(105, 128)" class="key keypos-22">
<rect rx="6" ry="6" x="-13" y="-12" width="26" height="24" class="key"/>
</g>
<g transform="translate(240, 128)" class="key keypos-23">
<rect rx="6" ry="6" x="-13" y="-12" width="26" height="24" class="key"/>
</g>
<g transform="translate(270, 128)" class="key keypos-24">
<rect rx="6" ry="6" x="-13" y="-12" width="26" height="24" class="key"/>
</g>
<g transform="translate(300, 128)" class="key keypos-25">
<rect rx="6" ry="6" x="-13" y="-12" width="26" height="24" class="key"/>
</g>
<g transform="translate(330, 142)" class="key keypos-26">
<rect rx="6" ry="6" x="-13" y="-12" width="26" height="24" class="key"/>
</g>
<g transform="translate(90, 156)" class="key keypos-27">
<rect rx="6" ry="6" x="-13" y="-12" width="26" height="24" class="key"/>
</g>
<g transform="translate(120, 156)" class="key keypos-28">
<rect rx="6" ry="6" x="-13" y="-12" width="26" height="24" class="key"/>
</g>
<g transform="translate(150, 156)" class="key keypos-29">
<rect rx="6" ry="6" x="-13" y="-12" width="26" height="24" class="key"/>
</g>
<g transform="translate(195, 156)" class="key keypos-30">
<rect rx="6" ry="6" x="-13" y="-12" width="26" height="24" class="key"/>
</g>
<g transform="translate(225, 156)" class="key keypos-31">
<rect rx="6" ry="6" x="-13" y="-12" width="26" height="24" class="key"/>
</g>
<g transform="translate(255, 156)" class="key keypos-32">
<rect rx="6" ry="6" x="-13" y="-12" width="26" height="24" class="key"/>
</g>
</g>
</g>
<g transform="translate(405, 1066)" class="layer-combopos-3">
<g transform="translate(0, 28)">
<g transform="translate(30, 28)" class="key  combo-separate keypos-0">
<rect rx="6" ry="6" x="-28" y="-26" width="56" height="52" class="key  combo-separate"/>
<text x="0" y="0" class="key  combo-separate tap">ENTER</text>
</g>
<g transform="translate(45, 72)" class="key keypos-1">
<rect rx="6" ry="6" x="-13" y="-12" width="26" height="24" class="key"/>
</g>
<g transform="translate(75, 72)" class="key keypos-2">
<rect rx="6" ry="6" x="-13" y="-12" width="26" height="24" class="key"/>
</g>
<g transform="translate(105, 72)" class="key keypos-3">
<rect rx="6" ry="6" x="-13" y="-12" width="26" height="24" class="key"/>
</g>
<g transform="translate(135, 86)" class="key keypos-4">
<rect rx="6" ry="6" x="-13" y="-12" width="26" height="24" class="key"/>
</g>
<g transform="translate(210, 86)" class="key keypos-5">
<rect rx="6" ry="6" x="-13" y="-12" width="26" height="24" class="key"/>
</g>
<g transform="translate(240, 72)" class="key keypos-6">
<rect rx="6" ry="6" x="-13" y="-12" width="26" height="24" class="key"/>
</g>
<g transform="translate(270, 72)" class="key keypos-7">
<rect rx="6" ry="6" x="-13" y="-12" width="26" height="24" class="key"/>
</g>
<g transform="translate(300, 72)" class="key keypos-8">
<rect rx="6" ry="6" x="-13" y="-12" width="26" height="24" class="key"/>
</g>
<g transform="translate(15, 114)" class="key keypos-9">
<rect rx="6" ry="6" x="-13" y="-12" width="26" height="24" class="key"/>
</g>
<g transform="translate(45, 100)" class="key keypos-10">
<rect rx="6" ry="6" x="-13" y="-12" width="26" height="24" class="key"/>
</g>
<g transform="translate(75, 100)" class="key held keypos-11">
<rect rx="6" ry="6" x="-13" y="-12" width="26" height="24" class="key held"/>
</g>
<g transform="translate(105, 100)" class="key keypos-12">
<rect rx="6" ry="6" x="-13" y="-12" width="26" height="24" class="key"/>
</g>
<g transform="translate(135, 114)" class="key keypos-13">
<rect rx="6" ry="6" x="-13" y="-12" width="26" height="24" class="key"/>
</g>
<g transform="translate(210, 114)" class="key keypos-14">
<rect rx="6" ry="6" x="-13" y="-12" width="26" height="24" class="key"/>
</g>
<g transform="translate(240, 100)" class="key keypos-15">
<rect rx="6" ry="6" x="-13" y="-12" width="26" height="24" class="key"/>
</g>
<g transform="translate(270, 100)" class="key held keypos-16">
<rect rx="6" ry="6" x="-13" y="-12" width="26" height="24" class="key held"/>
</g>
<g transform="translate(300, 100)" class="key keypos-17">
<rect rx="6" ry="6" x="-13" y="-12" width="26" height="24" class="key"/>
</g>
<g transform="translate(330, 114)" class="key keypos-18">
<rect rx="6" ry="6" x="-13" y="-12" width="26" height="24" class="key"/>
</g>
<g transform="translate(15, 142)" class="key keypos-19">
<rect rx="6" ry="6" x="-13" y="-12" width="26" height="24" class="key"/>
</g>
<g transform="translate(45, 128)" class="key keypos-20">
<rect rx="6" ry="6" x="-13" y="-12" width="26" height="24" class="key"/>
</g>
<g transform="translate(75, 128)" class="key keypos-21">
<rect rx="6" ry="6" x="-13" y="-12" width="26" height="24" class="key"/>
</g>
<g transform="translate(105, 128)" class="key keypos-22">
<rect rx="6" ry="6" x="-13" y="-12" width="26" height="24" class="key"/>
</g>
<g transform="translate(240, 128)" class="key keypos-23">
<rect rx="6" ry="6" x="-13" y="-12" width="26" height="24" class="key"/>
</g>
<g transform="translate(270, 128)" class="key keypos-24">
<rect rx="6" ry="6" x="-13" y="-12" width="26" height="24" class="key"/>
</g>
<g transform="translate(300, 128)" class="key keypos-25">
<rect rx="6" ry="6" x="-13" y="-12" width="26" height="24" class="key"/>
</g>
<g transform="translate(330, 142)" class="key keypos-26">
<rect rx="6" ry="6" x="-13" y="-12" width="26" height="24" class="key"/>
</g>
<g transform="translate(90, 156)" class="key keypos-27">
<rect rx="6" ry="6" x="-13" y="-12" width="26" height="24" class="key"/>
</g>
<g transform="translate(120, 156)" class="key keypos-28">
<rect rx="6" ry="6" x="-13" y="-12" width="26" height="24" class="key"/>
</g>
<g transform="translate(150, 156)" class="key keypos-29">
<rect rx="6" ry="6" x="-13" y="-12" width="26" height="24" class="key"/>
</g>
<g transform="translate(195, 156)" class="key keypos-30">
<rect rx="6" ry="6" x="-13" y="-12" width="26" height="24" class="key"/>
</g>
<g transform="translate(225, 156)" class="key keypos-31">
<rect rx="6" ry="6" x="-13" y="-12" width="26" height="24" class="key"/>
</g>
<g transform="translate(255, 156)" class="key keypos-32">
<rect rx="6" ry="6" x="-13" y="-12" width="26" height="24" class="key"/>
</g>
</g>
</g>
</svg>
